<mxfile host="Electron" modified="2024-03-03T05:19:35.865Z" agent="Mozilla/5.0 (Macintosh; Intel Mac OS X 10_15_7) AppleWebKit/537.36 (KHTML, like Gecko) draw.io/21.3.7 Chrome/112.0.5615.204 Electron/24.5.0 Safari/537.36" etag="4lHz3RNzwOomnqHbA4hv" version="21.3.7" type="device" pages="4">
  <diagram id="8OjiD4HD4XbzlwgRblUs" name="Connector Architecture">
    <mxGraphModel dx="1420" dy="790" grid="1" gridSize="10" guides="1" tooltips="1" connect="1" arrows="1" fold="1" page="1" pageScale="1" pageWidth="1169" pageHeight="827" math="0" shadow="0">
      <root>
        <mxCell id="0" />
        <mxCell id="1" parent="0" />
        <mxCell id="hMC2YsUDav0fQ70Ixbl6-1" value="Connector Bundle" style="rounded=0;whiteSpace=wrap;html=1;verticalAlign=top;fillColor=#dae8fc;strokeColor=#6c8ebf;" parent="1" vertex="1">
          <mxGeometry x="430" y="40" width="270" height="360" as="geometry" />
        </mxCell>
        <mxCell id="hMC2YsUDav0fQ70Ixbl6-2" value="Reconciliation Operations" style="rounded=0;whiteSpace=wrap;html=1;fillColor=#fff2cc;strokeColor=#d6b656;verticalAlign=top;" parent="1" vertex="1">
          <mxGeometry x="450" y="260" width="160" height="130" as="geometry" />
        </mxCell>
        <mxCell id="hMC2YsUDav0fQ70Ixbl6-3" value="Provisioning Operations" style="rounded=0;whiteSpace=wrap;html=1;fillColor=#fff2cc;strokeColor=#d6b656;verticalAlign=top;" parent="1" vertex="1">
          <mxGeometry x="450" y="70" width="160" height="180" as="geometry" />
        </mxCell>
        <mxCell id="hMC2YsUDav0fQ70Ixbl6-4" value="Grafana Server" style="rounded=0;whiteSpace=wrap;html=1;verticalAlign=top;fillColor=#FFE6FC;strokeColor=#b85450;" parent="1" vertex="1">
          <mxGeometry x="797" y="40" width="273" height="360" as="geometry" />
        </mxCell>
        <mxCell id="hMC2YsUDav0fQ70Ixbl6-5" value="Oracle Identity Governance" style="rounded=0;whiteSpace=wrap;html=1;verticalAlign=top;fillColor=#FFE6FC;strokeColor=#b85450;" parent="1" vertex="1">
          <mxGeometry x="90" y="40" width="244" height="360" as="geometry" />
        </mxCell>
        <mxCell id="hMC2YsUDav0fQ70Ixbl6-6" value="REST" style="rounded=0;whiteSpace=wrap;html=1;fillColor=#d5e8d4;strokeColor=#82b366;direction=west;rotation=270;" parent="1" vertex="1">
          <mxGeometry x="496" y="205" width="318.897" height="49.9999" as="geometry" />
        </mxCell>
        <mxCell id="hMC2YsUDav0fQ70Ixbl6-7" value="" style="endArrow=classic;html=1;rounded=0;" parent="1" edge="1">
          <mxGeometry width="50" height="50" relative="1" as="geometry">
            <mxPoint x="630" y="310" as="sourcePoint" />
            <mxPoint x="590" y="310" as="targetPoint" />
          </mxGeometry>
        </mxCell>
        <mxCell id="hMC2YsUDav0fQ70Ixbl6-8" value="" style="endArrow=classic;html=1;rounded=0;" parent="1" edge="1">
          <mxGeometry width="50" height="50" relative="1" as="geometry">
            <mxPoint x="630" y="359.6" as="sourcePoint" />
            <mxPoint x="590" y="359.6" as="targetPoint" />
          </mxGeometry>
        </mxCell>
        <mxCell id="hMC2YsUDav0fQ70Ixbl6-9" value="ICF Framework" style="rounded=0;whiteSpace=wrap;html=1;fillColor=#d5e8d4;strokeColor=#82b366;direction=west;rotation=270;" parent="1" vertex="1">
          <mxGeometry x="145.5" y="212.5" width="318.9" height="35" as="geometry" />
        </mxCell>
        <mxCell id="hMC2YsUDav0fQ70Ixbl6-10" value="ICF Integration" style="rounded=0;whiteSpace=wrap;html=1;fillColor=#d5e8d4;strokeColor=#82b366;direction=west;rotation=270;" parent="1" vertex="1">
          <mxGeometry x="92.5" y="212.5" width="318.9" height="35" as="geometry" />
        </mxCell>
        <mxCell id="hMC2YsUDav0fQ70Ixbl6-11" value="" style="endArrow=classic;html=1;rounded=0;exitX=0.31;exitY=-0.001;exitDx=0;exitDy=0;exitPerimeter=0;" parent="1" source="hMC2YsUDav0fQ70Ixbl6-9" edge="1">
          <mxGeometry width="50" height="50" relative="1" as="geometry">
            <mxPoint x="400" y="170" as="sourcePoint" />
            <mxPoint x="450" y="170" as="targetPoint" />
          </mxGeometry>
        </mxCell>
        <mxCell id="hMC2YsUDav0fQ70Ixbl6-12" value="0" style="edgeLabel;html=1;align=center;verticalAlign=middle;resizable=0;points=[];" parent="hMC2YsUDav0fQ70Ixbl6-11" vertex="1" connectable="0">
          <mxGeometry x="-0.1641" y="-2" relative="1" as="geometry">
            <mxPoint x="-10" y="-2" as="offset" />
          </mxGeometry>
        </mxCell>
        <mxCell id="hMC2YsUDav0fQ70Ixbl6-13" value="&amp;nbsp; Provisioning&amp;nbsp;&amp;nbsp;" style="edgeLabel;html=1;align=center;verticalAlign=middle;resizable=0;points=[];" parent="hMC2YsUDav0fQ70Ixbl6-11" vertex="1" connectable="0">
          <mxGeometry x="-0.2346" y="-1" relative="1" as="geometry">
            <mxPoint x="20" y="-2" as="offset" />
          </mxGeometry>
        </mxCell>
        <mxCell id="hMC2YsUDav0fQ70Ixbl6-14" value="" style="endArrow=classic;html=1;rounded=0;entryX=0.799;entryY=0.016;entryDx=0;entryDy=0;entryPerimeter=0;" parent="1" target="hMC2YsUDav0fQ70Ixbl6-9" edge="1">
          <mxGeometry width="50" height="50" relative="1" as="geometry">
            <mxPoint x="450" y="324.8" as="sourcePoint" />
            <mxPoint x="400" y="324.8" as="targetPoint" />
          </mxGeometry>
        </mxCell>
        <mxCell id="hMC2YsUDav0fQ70Ixbl6-15" value="&amp;nbsp; Reconciliation&amp;nbsp;&amp;nbsp;" style="edgeLabel;html=1;align=center;verticalAlign=middle;resizable=0;points=[];" parent="hMC2YsUDav0fQ70Ixbl6-14" vertex="1" connectable="0">
          <mxGeometry x="0.1884" y="3" relative="1" as="geometry">
            <mxPoint x="13" y="-4" as="offset" />
          </mxGeometry>
        </mxCell>
        <mxCell id="hMC2YsUDav0fQ70Ixbl6-16" value="" style="endArrow=classic;html=1;rounded=0;" parent="1" edge="1">
          <mxGeometry width="50" height="50" relative="1" as="geometry">
            <mxPoint x="286" y="280" as="sourcePoint" />
            <mxPoint x="269" y="280" as="targetPoint" />
          </mxGeometry>
        </mxCell>
        <mxCell id="hMC2YsUDav0fQ70Ixbl6-17" value="" style="endArrow=classic;html=1;rounded=0;" parent="1" edge="1">
          <mxGeometry width="50" height="50" relative="1" as="geometry">
            <mxPoint x="270" y="191" as="sourcePoint" />
            <mxPoint x="288" y="191" as="targetPoint" />
          </mxGeometry>
        </mxCell>
        <mxCell id="hMC2YsUDav0fQ70Ixbl6-18" value="Adapters" style="rounded=0;whiteSpace=wrap;html=1;fillColor=#d5e8d4;strokeColor=#82b366;" parent="1" vertex="1">
          <mxGeometry x="103" y="70" width="120" height="60" as="geometry" />
        </mxCell>
        <mxCell id="hMC2YsUDav0fQ70Ixbl6-19" value="Reconciliation&lt;br&gt;Engine" style="rounded=0;whiteSpace=wrap;html=1;fillColor=#d5e8d4;strokeColor=#82b366;" parent="1" vertex="1">
          <mxGeometry x="103" y="350" width="120" height="40" as="geometry" />
        </mxCell>
        <mxCell id="hMC2YsUDav0fQ70Ixbl6-20" value="" style="endArrow=classic;html=1;rounded=0;exitX=0.5;exitY=1;exitDx=0;exitDy=0;entryX=0.282;entryY=0.981;entryDx=0;entryDy=0;entryPerimeter=0;edgeStyle=orthogonalEdgeStyle;" parent="1" source="hMC2YsUDav0fQ70Ixbl6-18" target="hMC2YsUDav0fQ70Ixbl6-10" edge="1">
          <mxGeometry width="50" height="50" relative="1" as="geometry">
            <mxPoint x="136" y="180" as="sourcePoint" />
            <mxPoint x="186" y="130" as="targetPoint" />
            <Array as="points">
              <mxPoint x="163" y="161" />
            </Array>
          </mxGeometry>
        </mxCell>
        <mxCell id="hMC2YsUDav0fQ70Ixbl6-21" value="&lt;span style=&quot;background-color: rgb(255, 230, 252);&quot;&gt;&amp;nbsp; Provisioning&amp;nbsp;&amp;nbsp;&lt;/span&gt;" style="edgeLabel;html=1;align=center;verticalAlign=middle;resizable=0;points=[];labelBackgroundColor=#F8CECC;" parent="hMC2YsUDav0fQ70Ixbl6-20" vertex="1" connectable="0">
          <mxGeometry x="-0.1427" y="-1" relative="1" as="geometry">
            <mxPoint x="-12" y="-2" as="offset" />
          </mxGeometry>
        </mxCell>
        <mxCell id="hMC2YsUDav0fQ70Ixbl6-22" value="" style="endArrow=classic;html=1;rounded=0;exitX=0.5;exitY=0;exitDx=0;exitDy=0;edgeStyle=orthogonalEdgeStyle;entryX=0.436;entryY=0.979;entryDx=0;entryDy=0;entryPerimeter=0;" parent="1" edge="1">
          <mxGeometry width="50" height="50" relative="1" as="geometry">
            <mxPoint x="162" y="280" as="sourcePoint" />
            <mxPoint x="235.18500000000006" y="249.59040000000005" as="targetPoint" />
            <Array as="points">
              <mxPoint x="161" y="250" />
              <mxPoint x="198" y="250" />
            </Array>
          </mxGeometry>
        </mxCell>
        <mxCell id="hMC2YsUDav0fQ70Ixbl6-23" value="&amp;nbsp; Reconciliation&amp;nbsp;&amp;nbsp;" style="edgeLabel;html=1;align=center;verticalAlign=middle;resizable=0;points=[];labelBackgroundColor=#FFE6FC;" parent="hMC2YsUDav0fQ70Ixbl6-22" vertex="1" connectable="0">
          <mxGeometry x="-0.2418" y="1" relative="1" as="geometry">
            <mxPoint x="-3" as="offset" />
          </mxGeometry>
        </mxCell>
        <mxCell id="hMC2YsUDav0fQ70Ixbl6-24" value="" style="endArrow=classic;html=1;rounded=0;exitX=0.5;exitY=1;exitDx=0;exitDy=0;" parent="1" source="hMC2YsUDav0fQ70Ixbl6-40" target="hMC2YsUDav0fQ70Ixbl6-19" edge="1">
          <mxGeometry width="50" height="50" relative="1" as="geometry">
            <mxPoint x="283" y="300" as="sourcePoint" />
            <mxPoint x="333" y="250" as="targetPoint" />
          </mxGeometry>
        </mxCell>
        <mxCell id="hMC2YsUDav0fQ70Ixbl6-25" value="" style="endArrow=classic;html=1;rounded=0;exitX=0.31;exitY=-0.001;exitDx=0;exitDy=0;exitPerimeter=0;" parent="1" edge="1">
          <mxGeometry width="50" height="50" relative="1" as="geometry">
            <mxPoint x="680" y="170" as="sourcePoint" />
            <mxPoint x="816" y="171" as="targetPoint" />
          </mxGeometry>
        </mxCell>
        <mxCell id="hMC2YsUDav0fQ70Ixbl6-26" value="0" style="edgeLabel;html=1;align=center;verticalAlign=middle;resizable=0;points=[];" parent="hMC2YsUDav0fQ70Ixbl6-25" vertex="1" connectable="0">
          <mxGeometry x="-0.1641" y="-2" relative="1" as="geometry">
            <mxPoint x="-10" y="-2" as="offset" />
          </mxGeometry>
        </mxCell>
        <mxCell id="hMC2YsUDav0fQ70Ixbl6-27" value="&amp;nbsp; Provisioning&amp;nbsp;&amp;nbsp;" style="edgeLabel;html=1;align=center;verticalAlign=middle;resizable=0;points=[];" parent="hMC2YsUDav0fQ70Ixbl6-25" vertex="1" connectable="0">
          <mxGeometry x="-0.2346" y="-1" relative="1" as="geometry">
            <mxPoint x="20" y="-2" as="offset" />
          </mxGeometry>
        </mxCell>
        <mxCell id="hMC2YsUDav0fQ70Ixbl6-28" value="" style="endArrow=classic;html=1;rounded=0;entryX=0.799;entryY=0.016;entryDx=0;entryDy=0;entryPerimeter=0;" parent="1" edge="1">
          <mxGeometry width="50" height="50" relative="1" as="geometry">
            <mxPoint x="816" y="324" as="sourcePoint" />
            <mxPoint x="680" y="324.2" as="targetPoint" />
          </mxGeometry>
        </mxCell>
        <mxCell id="hMC2YsUDav0fQ70Ixbl6-29" value="&amp;nbsp; Reconciliation&amp;nbsp;&amp;nbsp;" style="edgeLabel;html=1;align=center;verticalAlign=middle;resizable=0;points=[];" parent="hMC2YsUDav0fQ70Ixbl6-28" vertex="1" connectable="0">
          <mxGeometry x="0.1884" y="3" relative="1" as="geometry">
            <mxPoint x="13" y="-4" as="offset" />
          </mxGeometry>
        </mxCell>
        <mxCell id="hMC2YsUDav0fQ70Ixbl6-30" value="Update" style="rounded=0;whiteSpace=wrap;html=1;verticalAlign=middle;fillColor=#dae8fc;strokeColor=#6c8ebf;" parent="1" vertex="1">
          <mxGeometry x="470" y="150" width="120" height="40" as="geometry" />
        </mxCell>
        <mxCell id="hMC2YsUDav0fQ70Ixbl6-31" value="Lookup Synchronization" style="rounded=0;whiteSpace=wrap;html=1;verticalAlign=middle;fillColor=#dae8fc;strokeColor=#6c8ebf;" parent="1" vertex="1">
          <mxGeometry x="470" y="290" width="120" height="40" as="geometry" />
        </mxCell>
        <mxCell id="hMC2YsUDav0fQ70Ixbl6-32" value="Account Reconciliation" style="rounded=0;whiteSpace=wrap;html=1;verticalAlign=middle;fillColor=#dae8fc;strokeColor=#6c8ebf;" parent="1" vertex="1">
          <mxGeometry x="470" y="340" width="120" height="40" as="geometry" />
        </mxCell>
        <mxCell id="hMC2YsUDav0fQ70Ixbl6-33" value="Target System Service" style="rounded=0;whiteSpace=wrap;html=1;fillColor=#ffe6cc;strokeColor=#d79b00;verticalAlign=middle;" parent="1" vertex="1">
          <mxGeometry x="817" y="140" width="100" height="200" as="geometry" />
        </mxCell>
        <mxCell id="hMC2YsUDav0fQ70Ixbl6-34" value="" style="shape=image;verticalLabelPosition=bottom;labelBackgroundColor=default;verticalAlign=top;aspect=fixed;imageAspect=0;image=data:image/png,iVBORw0KGgoAAAANSUhEUgAAAQUAAAC+CAYAAAA87BqTAAAAAXNSR0IArs4c6QAAADhlWElmTU0AKgAAAAgAAYdpAAQAAAABAAAAGgAAAAAAAqACAAQAAAABAAABBaADAAQAAAABAAAAvgAAAADUJ7EvAAAZXklEQVR4Ae2dC5AcxXnHex67eyeduIfESzKgsiQsyooJZUPZjiGWeVoGUySOTGSBwBDJUBDbMQZJOKmlDDpJtolTtkNhEiQwJ8ungCMwFA+JIwWFIYGqFHHKGAFKgRAgxJ1Od7rH7s5Mvm/2ZnbufLrdnZ1Hz9y/q+5mdna6v69/PfPffk2PEAggAAIgAAIgAAIgAAIgAAIgAAIgAAIgAAIgAAIgAAIgAAIgAAIgAAIgAAIgAAIgAAIgAAIgAAIgAAIgEDcBxa8DlmUp27ZtO11V1TNN0zyW0sn6TQvxQMAPAbr26DK0+ulvL/31rFy58rCfdBBnPAFfokBicAkls5n+Fo9PDp9AIDYCBRKGe+hvPcShsTKoWxRIENaSyc7GzCI2CIRG4PeU8tIVK1a8H5qFlCes1pM/EoSL6PwN9cTBuSAQMYHTyN62iG2mylxdokA530h/ddcuUkUMmUkCgS90dXVdmARHZfSxZlHYvn07K/DpMmYCPoHARALUCXn5xGP4XBuBmkWBRhg+XVuSOAsE4idAHY64Xn0WQ82iQJCP82kD0UAgDgLHx2E0DTZrFgWqjjWlIcPIw7QhgOvVZ1HXLAo+00c0EACBhBGAKCSswOAuCIRNQA/bgJN+a2ur4L9sNisUBaOaDhds/5hAqVQSw8PD4uDBg4L3EaIlELoozJ8/XyxZskTMmjUr2pzBWuIJ0IiX2Lt3r3jllVfEyMhI4vOTlAyEKgpnnnmmWLhwYVJYwE/JCFDntliwYIGYO3eu6OnpEf39/ZJ5mE53QutTWLx4MQQhnddM5Llqbm4W55xzjtD1UH/DIs+XrAZDEYVMJmM3GWTNNPxKHoGWlhaxaNGi5DmeQI9DEYV58+YJFgYEEAiSAPdPIYRPIBRRmDNnTview8K0I9DW1oYfmwhKPRRR4DYgAgiEQaCpCRMVw+DqTTMUUdA0zWsD+yAQGAFcW4GhPGpCoYjCUa3hCxAAAekJQBSkLyI4CALREoAoRMsb1kBAegIQBemLCA6CQLQEIArR8oY1EJCeAERB+iKCgyAQLQGIQrS8YQ0EpCcAUZC+iOAgCERLAKIQLW9YAwHpCUAUpC8iOAgC0RKAKETLG9ZAQHoCWLVC+iKCg1ERsPJ5tfcc4zRhlk5TLbHYVMSxwlJnKcJsEqo6qFjmgGkp+4Ri/l5o5u9mL928LyrforQDUYiSNmxJR+C9J26amdMyX6FXpF7SJwpLFVN08OtSLVpb2F5eWLHIZ9qzLGHRtrzmMFWwDVX07lr/Bn25SzXFjtbnsz1KPm9Kl0EfDkEUfEBDlOQT6H/ye4tM1bqFbvWv0m3f4jNHCyjeAlMVa/o+V3ird9e6u61C7qezl+UP+0xPimgQBSmKAU5EReCDx9efqOlioyHMr5HN8c/4U4VAVVRqKaj2awj4VQRcW+AtvTaRagpUYTBpa5nCoJWm+ZgnnExn3qFkCzf1PrVuc3tf7k5leb7g+T4xu+hoTExRwdFGCND9q/TuuvV6EoRXKZ0r6W9MEBTBazTw+0iaaQGXplxOZGkpwQwtEqvTcf6ORYK3/DmT0d1z+XxedpC/94R2UpHOvo7Cf/c+ue7PPMcTszsuN4nxGo6CQB0E+nrybX271++k3/mfUbRj7KhUBdB1jYQgJ3IkCHzDl+sFtSfMNQgWDxaSpmxuojicRtWO/6B+h3UsSLWnGv+ZEIX4ywAehEigv2ftQssovEQmLnHMaJoqmnNNVCMI7m1lKqXJ4pDLjUuTayMbenevf9B67MacY1/2LURB9hKCf74J9D71939iGNqzlMACToR/rlkIcvSrHtarCzVVI3FoouZGpbuO7F7Wm2157EBP3m+HJrsfWYAoRIYahqIkMFMbVYRq7KYmwwlsl0UgR7/k3GQIO5ApEp6M3Tfh2KKmyRc0Y3Sn1Z3POsdk3UIUZC0Z+OWbQFY1xCfb3srRcMGxnAgLAlftJ3QI+k6/1oj8Riu7OTEWgYWhb3ZhS63x4zoPohAXedgNiYAlPnHMPjGDawoUHEEIq7lQLRPcnMhSP0O58UIbS6zo23Xr31aLF+f3EIU46cN24ATmz+gVc7IDdro8msAjC3EJgpM5WxhoKNMJNNNhc9/Tt5zufJZtC1GQrUTgj28CzVpRnDrzfTf+JHMI3O+i3uGmhKc/IydM7eeyDlVCFKK+OmAvNAIfa3mXpgaUHz/gG9BzE4Zms56EM3ql1kJzIc/q3b3u6/XEj+pciEJUpGEnVALH6EPihFz5kQPu/c/o8r3g2PbL8+Jlat7cJuNoBEQh1EsViUdF4KMzD7qmdJojEHc/guvMhB2eOekZBZnX215YOeGU2D9CFGIvAjjQKIFmrSCOd2oJlJju6dRrNO0w4vPUaCfQ81ffdvZl2UIUZCkJ+OGbwNymfvfhAu7Q41EHmYP9kBW3JThYYolsIxEQhXLR4H+CCZyYO+R6zzdcEoLmqS1Ypr5CJp8hCjKVBnypm0BOLYoWfdSOx211T3u97rSijMB9C5VgXVDZj38PohB/GcCDBgh0ZI64sZMiCOwwd4QqqtvM+cShZ9e2uxmJeQeiEHMBwHxjBNqyw24C2vjFTtzjsu7wTMexoBoj6lnOh7i3EIW4SwD2GyJAT0O68ZNUU2Cnvf7SjXiqm5GYdyAKMRcAzDdGYAYNR5YDjzm41fHGEo0otjMAweYsVSyKyGxVMxCFqohwgswEsmrJds++wZKlCdSv4Ln9xh7zloG1xysZ3IEPIFAfAW3sWQdZZzBOlZvxGqZIsyoTRGGqUsN3UhNQhZmwBsN4nN7mjqVYzeO/je8TRCE+9rDcIAFTqDQhcOz3dtwrGBpMOKLo5TdJlI3Ri6iGIjJb1QxEoSoinCAzAYN66Dh4bzCZ/fX6Nu5dMooorwzjPSGmfYhCTOBhNhgCBbP8cNGEtzUFk3jIqfCbppxAb5464OzHvYUoxF0CsN8QgSNGZXFk03OTNZRoRJFNT1WBGkGvRWS2qhmIQlVEOEFmAkdKlXesmPSexyQFr4ipqvYHWXyHKMhSEvDDF4G+4gw3nkkvfU1SMA3X31JB1f9TFt8hCrKUBPzwRaCvOJPilUcgDMPwlUYckbjp4PaDWOLl45bmB+PwYzKbEIXJqOBYYggUTE0cLpWH+Pkm41fEJyEYpYqAUaPncZl8hijIVBrwxReB/SOtbjzDKE97dg/IuEMqUPL4qVtql0xuQhRkKg344ovA/pFjhGklpwlRMg1v0+HF1gtu3+Mr4yFFgiiEBBbJRkegYGbEu6NttkEe5SsWi9EZr9cS1xJKldqMpSo/qjeJsM+HKIRNGOlHQuDNI3PITrm2UKT2utuJF4n12o1ws8EZJSF92NPxbObB2mNHcyZEIRrOsBIygSNGTrwzUq4t8KTngoS1BRYqr1+qZa1V8nnpekYhCiFfrEg+OgJ/GDheFM3yJc3Dk95qenReHM0SC4KzIIxdp3mq/fzOh452dpzHIQpx0oftQAkULF28OjjXTbNQKrpVdfdgTDvFoiGMymSlw4owvxGTK1XNQhSqIsIJSSLATQh3iJIa7aOjBRqZiLeGXqJaS5EEyg2K8o228za+6X6WbAeiIFmBwJ3GCfzvwDxxuNhsKwE/Uj0yOhpbjYGbMOObDdadHefe8cvGcxleChCF8Ngi5ZgI8BoLL/Wfwg34vbYLXGMoFKj6XplFGLprZLNYZEGgGgLt20ER3W3ndt4Uuu0GDUAUGgSI6HISoHUWqJJgfN55JJl7/kepo69cjXfu0nB8L9saHd9kEGJ7e+vBlbTAbLjGA8gSRCEAiEhCTgId5296SzeyZ5Mw/Jft4div9wj3M1Q6/YJzntLn5sLIyIi3U5FqCtZP25/Lfk351M89HQvBmQ06JYhC0ESRnlQEZl2YP9BWGDib5jXd5TjGk4dGCqPlTshAHqCy6FkGg/ouRuzmgqcqMKQo1pUd53feKON8BIfHxC1EYSIRfE4dAWXZT0Y7zt1wvaJal1Lm3nYyaNAzCNwJyX/crKhrlILufBYX7jMYGhkVBeqz8K6kRNWDZ2he5Rnt53b+wrGXlG15gbukeAs/QaABAu1f6Hz4QE/+ad0orqOb9kZKahYnxzc3/3HHIL8/QqWXtKj88lfat18ES+fwrz/3FfC6irzCE62pSMc8dQJOqBzeoE2+47zOB5wDSdtCFJJWYvC3IQJji5nc2v94/kdmpnAj3edfpwRPdhLlG9+waKJR/VMbXqBl2u9q69vTpSzfEeEwh+N5cFuIQnAskVKCCLRelO8ld2+z8vnv93+2sNRQxSVUMTiXfvyX1JiNAvVT/FYxrV0kIP8258LOV2uMJ/1pEAXpiwgOhklgrANwN9ngP9HXk28zS8XFqmJ+zFTEscJSjqFGRI6mJR+hNRsGhGK9rRjKq+3GwB7uqwjTt7jShijERR52pSTQvjR/iBx7YexPSh/DdgqjD2ETRvogkDACEIWEFRjcBYGwCUAUwiaM9EEgYQQgCgkrMLgLAmETQEdj2ISRvv0cwGtvvSfeOdArhum5g0bC/n5em6CpahI03yC7ccvDXTTr4NZ1V1/2f1UjhHzCxi2P/JimPx0bsplK8pbFM7H20zSsx26++uJnK19U34MoVGeEMxog8O7BQ2LnMy+L/sGhBlKZGLWmy1ajWCtofuIR2q6emEKUnzu3PnIBTYX8ZpQ2eTYmB5p/uZbE8UlTLa1Yv+ovPqzFBzQfaqGEc3wR+KDvsPjl488HLAj1uqJe9cN/efSUemMFer5lfi/Q9OpP7ALV1Hbd2d1dfpVWlfg1SW6VNPA1CExK4InnX6GqfnnGr0LPE+i6Zj9LMOnJAR/kBVXKi6pYGUM11lPyawI2UVNym+99+M9pxvTZfDI/R5HJZGqK1/BJNF2bX8JtGEWqpNjW/7Qw2Pwd2ru9Wtqh1BSkfhlHNSL4PhACBw8NiHc+6LPT4pshm8sKTdPoQSN+2Cj8P12n37tyDZomJYqrNt7/iPt8QyAZrDERU1XcWgL7FEXebRvEmkU4k8m6nlqKda37YYqdUERheHh4CpP4ajoQeO/DfjebmqY796d7LOwdFiK2Oxay9JQT1xYiDZu2PPxp+pk+j42yPyrdqFEHR4RsH4Q4ZcN9D82u5kMoonDgwIFqdvF9ygmMFiqLDNH9EEvQ+Sas2L769nv//aQoHbGEp5YQgzA6ea0gIBxFrd05frRtKKKwf/9+MTQUZG/z0dzHcVkJ8CPIcQe7tqC6v85ZXdVoHYVoQud9O8+gIcgv2da41kJV+aSEUESBF6x4+eWXk8IAfqaYgK5Tx57zU2lZ12y657GPRJFdxazUEjIxNBsayWMoosAO7du3T7z00kvUpIr/F6MRQIibbALcdNE8tQVTL4VeW9i49eGPE7XLyuSoL4E7PRMUQhMFZrBnzx7xxBNPiLfffntseChBZOBqagjYIxFjuSGNuOb2+x6ZF2bmyMatlL5dP7GHYcM0FkLaoUtYX1+feO655+yhmJaWFpHNZiMbqw6BF5KskcCBwVKNZ4Z/GvctcKcjr7hMIaebJtcWbgjD8ob7Hj3VMo2v2mlzLSVhtQT2O3RRcMBzP8Phw4edj9imnMCgwZN0ctLkkm/OMVEgn5RrN/3rzg23XHPp/qAdVE2DBceugesxjjg0kq9Qmw+NOIa4IBAkgfK8BXcEIGdqauB9C51bfj2fGg0r2W+7L6MyTyLIrISeFkQhdMQwIAuBct+C3dSnpRYtri3MDdI3GnhcSwu/2rVvnr3JwpDEAFFIYqnBZ18Eyn0L7iXfZCrKLb4SmiTSWOfl1fZX3JeQ0FoC++8SmiSfOAQCqSNQ7vgbqy0oYvUdv3jwxCAyqRnWzZSO/aABD4GyACU1QBSSWnLw2xeBct+Ce9k3aaVsw7WFO+7ZeTxpwN+UHaKRjgSOOHhhunS8B7EPAmkmYN+07g+5tXrzlkdPaCS/pAH8SLK9VoGmqYmuJTAHiEIjVwPiJpKAXVuozHJsNoXhu7bATx1ainKdA4InKyU9QBSSXoLw3xeB8bUFsYabAH4SUi3tWzTi0MJxyyMOyb+lkp8DPyWJONOeQLlvwf1Vb9Yy9Y9EbLy7u1VYKr+92g5JnL3o+O7dQhS8NLA/rQiMW2/B8lFbyDSTIFitDI1HHNQEjzh4Cx6i4KWB/WlFgNeN9DxBOUPX1O/WCiD/s+4WmgH1Led8PePWOpxDid1CFBJbdHA8CAL8fIITaA3D635w/0PHOZ+n2uZmNHPnor20WVr6Epz8QhQcEthOSwKKyms5ur/yMwxTr1pb4KXSFWHxMKQd7GaI8yEFW4hCCgoRWWiMwLjJRpa4bsO9j035JqfiUDNPVLJHK+zZi7Q6dZpCunKTppJBXiIjMGEkYqamFI9aW8h3d2dpNTGe0myHJK296PhcbQtRqEYI308LAt7aAq3CfP3RagtNg01XExB75Sbv8ulpggRRSFNpIi++CUysLajCuGliYvl8D7/AYq1z3CskzrE0bCEKaShF5CEQAt6RCKFa1//w7kfmeBPOnTLAC6jM52NprSXYeeN/CCAAArRaEo1EqPRAkx1o6nIpWxlh6O7u1ugZKvctU2nsS3CuAdQUHBLYggARsN8T4ZBQxA3Oa9beGGxaTocX8VcKjTZ4Jj05Z6dmW48olF8fnJqsIyMg8McEeKqyO2+BaguKlfkOjTZwlwMv226HtM1LcPLlbCvTuZwjR9nSaswfMhkEEEg7Ae5ALL/GnmoFlnXDpq2/2Ut55he80FoJVEuoTHZKJYqaawokCP+TSgLIFAhMIDBhJGIWPfR0l3NKmp5xcPI0cVuzKAwMDLxIkT+YmAA+g0AaCUyoDdjzoO2mRWVxljRm285TzaKwZs2aIsX4QWpJIGMg4CHAQ468tJo3pGW9BG+eJtsfn+vJzvAco7bWndTp8qTnEHZBILUEvCMRdpNiGtQSuDDrEoXly5cb7e3tXyZA3MbCaERqbwdkjAl4+xbsWsI06WevefTBuUyWLVs2SvvXd3V1/SNt/4rAfYr+jqMaBL88EAEEbAKmJXiF5JOTjoNf6sLvQU37MKS3nKaJ9nmzjP0oCGzcsvOb9Fv7Y7aVyWQSPYxnWaY9FBkFtzBsFAsFYZCwcbAMa9G6ay99fSo7dTUfpkoI34FAWgnw3ITpFKZXbqdTySKvIOCTAETBJzhEA4G0EoAopLVkkS8Q8EkAouATHKKBQFoJQBTSWrLIFwj4JFD3PAWfdlIfbfXq1ZmhoaGv0JyNi2nOxkcpw/b7BQPOOE8Ye59svEBP8T2wbdu2PQGnj+RAQEAUArgIrrzyys+QINxPSS0kQQggxamTIBsX0Nz89StXrvzJvn37bn7mmWdKU8fAtyBQOwE0H2pnNemZJAjn0Yy3Hvpy4aQnhHeQBf3bJ5100q/z+TzKMTzO0y5lXEwNFPkVV1zB07t/RUnkGkimoahk/+LXX3/dXRWoocQQGQSIAEShsctgHd2UHY0lEUjsm6nGYr/XMJDUkMi0JgBR8F/8tFKX9df+owcas4WaMF8ONEUkNm0JQBR8Fj01HeZTVPt9gj6TCDQaCdRZgSaIxKYtAYiC/6Kv6ZXl/pOvLyYNU0ojUPV5jrNlIwBR8FkiVF2XbThXNn98kkW0uAlAFOIuAdgHAckIQBQkKxC4AwJxE4AoxF0CsA8CkhGAKEhWIHAHBOImAFGIuwRgHwQkIwBRkKxA4A4IxE0AohB3CcA+CEhGAKIgWYHAHRCImwBEIe4SgH0QkIwAREGyAoE7IBA3AYhC3CUA+yAgGQGIgmQFAndAIG4CEIW4SwD2QUAyAol8so5XTh4eHv5LWkPgbHpkeDZt43hR7hzJyvKTtJArLw0XRxihMniNyuJXDzzwwJQvL43DOdisj0DiRGHVqlUfp5WTH6JsnspZpYuxvhyn9+y5lLXlcWWPBIFN50mYbidhuC0uP2C3cQKJEoXLL798Lr3vYDdlGwuKNF72YaTA1xMLQ5G2R8IwgDTDJ5CoPoVMJvN9QgJBCP+6aNTCP5RGh1sbTQTx4yGQGFHgfgRqKsRWPY6neBJrNXfk0AenJ9b7ae54YkShUCjMo7IK41Vs0/wSCCf7RrEg1RqW4eQyealqulm1Ey4xojAyMlJIXhFMX4+NYtHtU0BncLzXgekxr5ea+zwfJ91NjChs3779XcoB/yEkgMDokf6nHTdLhoFRIgdGxFvTJPamIwvKG3937UW91VxI0ugDV3vupr98tUzh+9gJHHj/rdf/+SNLPvNF8uTzpAiiMFoQmq4LNY4ZJbHjiN4BvllMyxRGyREEGr4v3z9VnUmSKAhd1zfRkOQyqo6eVTVnOCEuAgaVzzU7duwYPOPiq9aopvEiOdJm0SVZKvFIJUIcBBRL/HakZfifarGdmOYDZ2br1q0jNCx5Hu3eT39VO0w4DkKkBPaStS92dXX9hq2uX/Wl1wxDpVmn4neRegFj4wgoQtkxnNUvyi9fXlO/XGIrc/RC1XlUa/gc5X62qqJSOu4qiP6DPc15dHT0eaohGBPNd3d3a28OziAxNz9rqUqHYpmJve4m5k3ez2pJKOZ+TRGPf3fVpa/I6yc8AwEQAAEQAAEQAAEQAAEQAAEQAAEQAAEQAAEQAAEQAAEQAAEQAAEQAAEQAAEQAAEQAAEQAIExAv8PpnnROTac3GMAAAAASUVORK5CYII=;" parent="1" vertex="1">
          <mxGeometry x="920" y="190" width="137.37" height="100" as="geometry" />
        </mxCell>
        <mxCell id="hMC2YsUDav0fQ70Ixbl6-35" value="" style="endArrow=classic;html=1;rounded=0;exitX=0.31;exitY=-0.001;exitDx=0;exitDy=0;exitPerimeter=0;edgeStyle=orthogonalEdgeStyle;" parent="1" target="hMC2YsUDav0fQ70Ixbl6-34" edge="1">
          <mxGeometry width="50" height="50" relative="1" as="geometry">
            <mxPoint x="917" y="169.5" as="sourcePoint" />
            <mxPoint x="1053" y="170.5" as="targetPoint" />
          </mxGeometry>
        </mxCell>
        <mxCell id="hMC2YsUDav0fQ70Ixbl6-36" value="&amp;nbsp; Provisioning&amp;nbsp;&amp;nbsp;" style="edgeLabel;html=1;align=center;verticalAlign=middle;resizable=0;points=[];labelBackgroundColor=#FFE6FC;" parent="hMC2YsUDav0fQ70Ixbl6-35" vertex="1" connectable="0">
          <mxGeometry x="-0.2346" y="-1" relative="1" as="geometry">
            <mxPoint x="58" y="-2" as="offset" />
          </mxGeometry>
        </mxCell>
        <mxCell id="hMC2YsUDav0fQ70Ixbl6-37" value="" style="endArrow=classic;html=1;rounded=0;entryX=0.799;entryY=0.016;entryDx=0;entryDy=0;entryPerimeter=0;edgeStyle=orthogonalEdgeStyle;exitX=0.5;exitY=1;exitDx=0;exitDy=0;" parent="1" source="hMC2YsUDav0fQ70Ixbl6-34" edge="1">
          <mxGeometry width="50" height="50" relative="1" as="geometry">
            <mxPoint x="1053" y="324.58" as="sourcePoint" />
            <mxPoint x="917" y="324.78" as="targetPoint" />
            <Array as="points">
              <mxPoint x="989" y="325" />
            </Array>
          </mxGeometry>
        </mxCell>
        <mxCell id="hMC2YsUDav0fQ70Ixbl6-38" value="&amp;nbsp; Reconciliation&amp;nbsp;&amp;nbsp;" style="edgeLabel;html=1;align=center;verticalAlign=middle;resizable=0;points=[];labelBackgroundColor=#FFE6FC;" parent="hMC2YsUDav0fQ70Ixbl6-37" vertex="1" connectable="0">
          <mxGeometry x="0.1884" y="3" relative="1" as="geometry">
            <mxPoint x="47" y="-4" as="offset" />
          </mxGeometry>
        </mxCell>
        <mxCell id="hMC2YsUDav0fQ70Ixbl6-39" value="" style="endArrow=classic;html=1;rounded=0;exitX=1;exitY=0.5;exitDx=0;exitDy=0;" parent="1" edge="1">
          <mxGeometry width="50" height="50" relative="1" as="geometry">
            <mxPoint x="590" y="172" as="sourcePoint" />
            <mxPoint x="631" y="172" as="targetPoint" />
          </mxGeometry>
        </mxCell>
        <mxCell id="hMC2YsUDav0fQ70Ixbl6-40" value="Scheduled Jobs&amp;nbsp;" style="rounded=0;whiteSpace=wrap;html=1;fillColor=#d5e8d4;strokeColor=#82b366;" parent="1" vertex="1">
          <mxGeometry x="103" y="280" width="120" height="40" as="geometry" />
        </mxCell>
        <mxCell id="hMC2YsUDav0fQ70Ixbl6-41" value="" style="endArrow=classic;html=1;rounded=0;exitX=1;exitY=0.5;exitDx=0;exitDy=0;" parent="1" source="hMC2YsUDav0fQ70Ixbl6-42" edge="1">
          <mxGeometry width="50" height="50" relative="1" as="geometry">
            <mxPoint x="530" y="410" as="sourcePoint" />
            <mxPoint x="631" y="120" as="targetPoint" />
          </mxGeometry>
        </mxCell>
        <mxCell id="hMC2YsUDav0fQ70Ixbl6-42" value="Create" style="rounded=0;whiteSpace=wrap;html=1;verticalAlign=middle;fillColor=#dae8fc;strokeColor=#6c8ebf;" parent="1" vertex="1">
          <mxGeometry x="470" y="100" width="120" height="40" as="geometry" />
        </mxCell>
        <mxCell id="hMC2YsUDav0fQ70Ixbl6-43" value="Delete" style="rounded=0;whiteSpace=wrap;html=1;verticalAlign=middle;fillColor=#dae8fc;strokeColor=#6c8ebf;" parent="1" vertex="1">
          <mxGeometry x="470" y="200" width="120" height="40" as="geometry" />
        </mxCell>
        <mxCell id="hMC2YsUDav0fQ70Ixbl6-44" value="" style="endArrow=classic;html=1;rounded=0;exitX=1;exitY=0.5;exitDx=0;exitDy=0;" parent="1" edge="1">
          <mxGeometry width="50" height="50" relative="1" as="geometry">
            <mxPoint x="591" y="222" as="sourcePoint" />
            <mxPoint x="632" y="222" as="targetPoint" />
          </mxGeometry>
        </mxCell>
      </root>
    </mxGraphModel>
  </diagram>
  <diagram id="B0FtWxsUQ52-c-5ed07C" name="Connector Model">
    <mxGraphModel dx="1420" dy="790" grid="1" gridSize="10" guides="1" tooltips="1" connect="1" arrows="1" fold="1" page="1" pageScale="1" pageWidth="1169" pageHeight="827" math="0" shadow="0">
      <root>
        <mxCell id="0" />
        <mxCell id="1" parent="0" />
        <mxCell id="fNSqUUSDBfNgYPUXuudb-1" value="GFN Account" style="rounded=0;whiteSpace=wrap;html=1;strokeColor=#5B9BD5;fontColor=#5B9BD5;fontStyle=1;verticalAlign=middle;align=left;spacingLeft=3;" parent="1" vertex="1">
          <mxGeometry x="250" y="9" width="490" height="30" as="geometry" />
        </mxCell>
        <mxCell id="fNSqUUSDBfNgYPUXuudb-2" value="" style="rounded=0;whiteSpace=wrap;html=1;strokeColor=#5B9BD5;fillColor=#f5f5f5;fontColor=#333333;" parent="1" vertex="1">
          <mxGeometry x="250" y="39" width="490" height="261" as="geometry" />
        </mxCell>
        <mxCell id="fNSqUUSDBfNgYPUXuudb-3" value="" style="shape=table;startSize=0;container=1;collapsible=0;childLayout=tableLayout;fillColor=#5B9BD5;strokeColor=#5B9BD5;fontColor=#FFFFFF;spacingRight=3;spacingLeft=3;" parent="1" vertex="1">
          <mxGeometry x="260" y="46.09" width="470" height="239.92090000000007" as="geometry" />
        </mxCell>
        <mxCell id="fNSqUUSDBfNgYPUXuudb-4" value="" style="shape=tableRow;horizontal=0;startSize=0;swimlaneHead=0;swimlaneBody=0;strokeColor=inherit;top=0;left=0;bottom=0;right=0;collapsible=0;dropTarget=0;fillColor=none;points=[[0,0.5],[1,0.5]];portConstraint=eastwest;fontColor=#FFFFFF;" parent="fNSqUUSDBfNgYPUXuudb-3" vertex="1">
          <mxGeometry width="470" height="30" as="geometry" />
        </mxCell>
        <mxCell id="fNSqUUSDBfNgYPUXuudb-5" value="2" style="shape=partialRectangle;html=1;whiteSpace=wrap;connectable=0;overflow=hidden;fillColor=none;top=0;left=0;bottom=0;right=0;pointerEvents=1;align=right;spacingLeft=3;fontColor=#FFFFFF;" parent="fNSqUUSDBfNgYPUXuudb-4" vertex="1">
          <mxGeometry width="24" height="30" as="geometry">
            <mxRectangle width="24" height="30" as="alternateBounds" />
          </mxGeometry>
        </mxCell>
        <mxCell id="fNSqUUSDBfNgYPUXuudb-6" value="Service" style="shape=partialRectangle;html=1;whiteSpace=wrap;connectable=0;strokeColor=#BD0100;overflow=hidden;fillColor=none;top=0;left=0;bottom=0;right=0;pointerEvents=1;align=left;spacingLeft=3;fontColor=#FFFFFF;" parent="fNSqUUSDBfNgYPUXuudb-4" vertex="1">
          <mxGeometry x="24" width="156" height="30" as="geometry">
            <mxRectangle width="156" height="30" as="alternateBounds" />
          </mxGeometry>
        </mxCell>
        <mxCell id="fNSqUUSDBfNgYPUXuudb-7" value="UD_GFN_USR_SVC" style="shape=partialRectangle;html=1;whiteSpace=wrap;connectable=0;strokeColor=#BD0100;overflow=hidden;fillColor=none;top=0;left=0;bottom=0;right=0;pointerEvents=1;align=left;spacingLeft=3;fontColor=#FFFFFF;" parent="fNSqUUSDBfNgYPUXuudb-4" vertex="1">
          <mxGeometry x="180" width="190" height="30" as="geometry">
            <mxRectangle width="190" height="30" as="alternateBounds" />
          </mxGeometry>
        </mxCell>
        <mxCell id="fNSqUUSDBfNgYPUXuudb-8" value="Long" style="shape=partialRectangle;html=1;whiteSpace=wrap;connectable=0;strokeColor=#BD0100;overflow=hidden;fillColor=none;top=0;left=0;bottom=0;right=0;pointerEvents=1;align=left;spacingLeft=3;fontColor=#FFFFFF;" parent="fNSqUUSDBfNgYPUXuudb-4" vertex="1">
          <mxGeometry x="370" width="50" height="30" as="geometry">
            <mxRectangle width="50" height="30" as="alternateBounds" />
          </mxGeometry>
        </mxCell>
        <mxCell id="fNSqUUSDBfNgYPUXuudb-9" style="shape=partialRectangle;html=1;whiteSpace=wrap;connectable=0;strokeColor=#BD0100;overflow=hidden;fillColor=none;top=0;left=0;bottom=0;right=0;pointerEvents=1;align=left;spacingLeft=3;fontColor=#FFFFFF;" parent="fNSqUUSDBfNgYPUXuudb-4" vertex="1">
          <mxGeometry x="420" width="50" height="30" as="geometry">
            <mxRectangle width="50" height="30" as="alternateBounds" />
          </mxGeometry>
        </mxCell>
        <mxCell id="fNSqUUSDBfNgYPUXuudb-10" style="shape=tableRow;horizontal=0;startSize=0;swimlaneHead=0;swimlaneBody=0;strokeColor=inherit;top=0;left=0;bottom=0;right=0;collapsible=0;dropTarget=0;fillColor=none;points=[[0,0.5],[1,0.5]];portConstraint=eastwest;fontColor=#FFFFFF;" parent="fNSqUUSDBfNgYPUXuudb-3" vertex="1">
          <mxGeometry y="30" width="470" height="30" as="geometry" />
        </mxCell>
        <mxCell id="fNSqUUSDBfNgYPUXuudb-11" value="32" style="shape=partialRectangle;html=1;whiteSpace=wrap;connectable=0;strokeColor=inherit;overflow=hidden;fillColor=none;top=0;left=0;bottom=0;right=0;pointerEvents=1;align=right;spacingLeft=3;fontColor=#FFFFFF;" parent="fNSqUUSDBfNgYPUXuudb-10" vertex="1">
          <mxGeometry width="24" height="30" as="geometry">
            <mxRectangle width="24" height="30" as="alternateBounds" />
          </mxGeometry>
        </mxCell>
        <mxCell id="fNSqUUSDBfNgYPUXuudb-12" value="Identifier" style="shape=partialRectangle;html=1;whiteSpace=wrap;connectable=0;strokeColor=inherit;overflow=hidden;fillColor=none;top=0;left=0;bottom=0;right=0;pointerEvents=1;align=left;spacingLeft=3;fontColor=#FFFFFF;" parent="fNSqUUSDBfNgYPUXuudb-10" vertex="1">
          <mxGeometry x="24" width="156" height="30" as="geometry">
            <mxRectangle width="156" height="30" as="alternateBounds" />
          </mxGeometry>
        </mxCell>
        <mxCell id="fNSqUUSDBfNgYPUXuudb-13" value="UD_GFN_USR_SID" style="shape=partialRectangle;html=1;whiteSpace=wrap;connectable=0;strokeColor=inherit;overflow=hidden;fillColor=none;top=0;left=0;bottom=0;right=0;pointerEvents=1;align=left;spacingLeft=3;fontColor=#FFFFFF;" parent="fNSqUUSDBfNgYPUXuudb-10" vertex="1">
          <mxGeometry x="180" width="190" height="30" as="geometry">
            <mxRectangle width="190" height="30" as="alternateBounds" />
          </mxGeometry>
        </mxCell>
        <mxCell id="fNSqUUSDBfNgYPUXuudb-14" value="String" style="shape=partialRectangle;html=1;whiteSpace=wrap;connectable=0;strokeColor=inherit;overflow=hidden;fillColor=none;top=0;left=0;bottom=0;right=0;pointerEvents=1;align=left;spacingLeft=3;fontColor=#FFFFFF;" parent="fNSqUUSDBfNgYPUXuudb-10" vertex="1">
          <mxGeometry x="370" width="50" height="30" as="geometry">
            <mxRectangle width="50" height="30" as="alternateBounds" />
          </mxGeometry>
        </mxCell>
        <mxCell id="fNSqUUSDBfNgYPUXuudb-15" value="32" style="shape=partialRectangle;whiteSpace=wrap;connectable=0;strokeColor=inherit;overflow=hidden;fillColor=none;top=0;left=0;bottom=0;right=0;pointerEvents=1;align=right;spacingLeft=3;fontColor=#FFFFFF;spacingRight=3;" parent="fNSqUUSDBfNgYPUXuudb-10" vertex="1">
          <mxGeometry x="420" width="50" height="30" as="geometry">
            <mxRectangle width="50" height="30" as="alternateBounds" />
          </mxGeometry>
        </mxCell>
        <mxCell id="fNSqUUSDBfNgYPUXuudb-16" style="shape=tableRow;horizontal=0;startSize=0;swimlaneHead=0;swimlaneBody=0;strokeColor=inherit;top=0;left=0;bottom=0;right=0;collapsible=0;dropTarget=0;fillColor=none;points=[[0,0.5],[1,0.5]];portConstraint=eastwest;fontColor=#FFFFFF;" parent="fNSqUUSDBfNgYPUXuudb-3" vertex="1">
          <mxGeometry y="60" width="470" height="30" as="geometry" />
        </mxCell>
        <mxCell id="fNSqUUSDBfNgYPUXuudb-17" value="6" style="shape=partialRectangle;html=1;whiteSpace=wrap;connectable=0;strokeColor=inherit;overflow=hidden;fillColor=none;top=0;left=0;bottom=0;right=0;pointerEvents=1;align=right;spacingLeft=3;fontColor=#FFFFFF;" parent="fNSqUUSDBfNgYPUXuudb-16" vertex="1">
          <mxGeometry width="24" height="30" as="geometry">
            <mxRectangle width="24" height="30" as="alternateBounds" />
          </mxGeometry>
        </mxCell>
        <mxCell id="fNSqUUSDBfNgYPUXuudb-18" value="Login Name" style="shape=partialRectangle;html=1;whiteSpace=wrap;connectable=0;strokeColor=inherit;overflow=hidden;fillColor=none;top=0;left=0;bottom=0;right=0;pointerEvents=1;align=left;spacingLeft=3;fontColor=#FFFFFF;" parent="fNSqUUSDBfNgYPUXuudb-16" vertex="1">
          <mxGeometry x="24" width="156" height="30" as="geometry">
            <mxRectangle width="156" height="30" as="alternateBounds" />
          </mxGeometry>
        </mxCell>
        <mxCell id="fNSqUUSDBfNgYPUXuudb-19" value="UD_GFN_USR_UID" style="shape=partialRectangle;html=1;whiteSpace=wrap;connectable=0;strokeColor=inherit;overflow=hidden;fillColor=none;top=0;left=0;bottom=0;right=0;pointerEvents=1;align=left;spacingLeft=3;fontColor=#FFFFFF;" parent="fNSqUUSDBfNgYPUXuudb-16" vertex="1">
          <mxGeometry x="180" width="190" height="30" as="geometry">
            <mxRectangle width="190" height="30" as="alternateBounds" />
          </mxGeometry>
        </mxCell>
        <mxCell id="fNSqUUSDBfNgYPUXuudb-20" value="String" style="shape=partialRectangle;html=1;whiteSpace=wrap;connectable=0;strokeColor=inherit;overflow=hidden;fillColor=none;top=0;left=0;bottom=0;right=0;pointerEvents=1;align=left;spacingLeft=3;fontColor=#FFFFFF;" parent="fNSqUUSDBfNgYPUXuudb-16" vertex="1">
          <mxGeometry x="370" width="50" height="30" as="geometry">
            <mxRectangle width="50" height="30" as="alternateBounds" />
          </mxGeometry>
        </mxCell>
        <mxCell id="fNSqUUSDBfNgYPUXuudb-21" value="256" style="shape=partialRectangle;html=1;whiteSpace=wrap;connectable=0;strokeColor=inherit;overflow=hidden;fillColor=none;top=0;left=0;bottom=0;right=0;pointerEvents=1;align=right;spacingLeft=3;fontColor=#FFFFFF;spacingRight=3;" parent="fNSqUUSDBfNgYPUXuudb-16" vertex="1">
          <mxGeometry x="420" width="50" height="30" as="geometry">
            <mxRectangle width="50" height="30" as="alternateBounds" />
          </mxGeometry>
        </mxCell>
        <mxCell id="fNSqUUSDBfNgYPUXuudb-22" style="shape=tableRow;horizontal=0;startSize=0;swimlaneHead=0;swimlaneBody=0;strokeColor=inherit;top=0;left=0;bottom=0;right=0;collapsible=0;dropTarget=0;fillColor=none;points=[[0,0.5],[1,0.5]];portConstraint=eastwest;fontColor=#FFFFFF;" parent="fNSqUUSDBfNgYPUXuudb-3" vertex="1">
          <mxGeometry y="90" width="470" height="30" as="geometry" />
        </mxCell>
        <mxCell id="fNSqUUSDBfNgYPUXuudb-23" value="8" style="shape=partialRectangle;html=1;whiteSpace=wrap;connectable=0;strokeColor=inherit;overflow=hidden;fillColor=none;top=0;left=0;bottom=0;right=0;pointerEvents=1;align=right;spacingLeft=3;fontColor=#FFFFFF;" parent="fNSqUUSDBfNgYPUXuudb-22" vertex="1">
          <mxGeometry width="24" height="30" as="geometry">
            <mxRectangle width="24" height="30" as="alternateBounds" />
          </mxGeometry>
        </mxCell>
        <mxCell id="fNSqUUSDBfNgYPUXuudb-24" value="Password" style="shape=partialRectangle;html=1;whiteSpace=wrap;connectable=0;strokeColor=inherit;overflow=hidden;fillColor=none;top=0;left=0;bottom=0;right=0;pointerEvents=1;align=left;spacingLeft=3;fontColor=#FFFFFF;" parent="fNSqUUSDBfNgYPUXuudb-22" vertex="1">
          <mxGeometry x="24" width="156" height="30" as="geometry">
            <mxRectangle width="156" height="30" as="alternateBounds" />
          </mxGeometry>
        </mxCell>
        <mxCell id="fNSqUUSDBfNgYPUXuudb-25" value="UD_GFN_USR_PWD" style="shape=partialRectangle;html=1;whiteSpace=wrap;connectable=0;strokeColor=inherit;overflow=hidden;fillColor=none;top=0;left=0;bottom=0;right=0;pointerEvents=1;align=left;spacingLeft=3;fontColor=#FFFFFF;" parent="fNSqUUSDBfNgYPUXuudb-22" vertex="1">
          <mxGeometry x="180" width="190" height="30" as="geometry">
            <mxRectangle width="190" height="30" as="alternateBounds" />
          </mxGeometry>
        </mxCell>
        <mxCell id="fNSqUUSDBfNgYPUXuudb-26" value="String" style="shape=partialRectangle;html=1;whiteSpace=wrap;connectable=0;strokeColor=inherit;overflow=hidden;fillColor=none;top=0;left=0;bottom=0;right=0;pointerEvents=1;align=left;spacingLeft=3;fontColor=#FFFFFF;" parent="fNSqUUSDBfNgYPUXuudb-22" vertex="1">
          <mxGeometry x="370" width="50" height="30" as="geometry">
            <mxRectangle width="50" height="30" as="alternateBounds" />
          </mxGeometry>
        </mxCell>
        <mxCell id="fNSqUUSDBfNgYPUXuudb-27" value="32" style="shape=partialRectangle;html=1;whiteSpace=wrap;connectable=0;strokeColor=inherit;overflow=hidden;fillColor=none;top=0;left=0;bottom=0;right=0;pointerEvents=1;align=right;spacingLeft=3;fontColor=#FFFFFF;spacingRight=3;" parent="fNSqUUSDBfNgYPUXuudb-22" vertex="1">
          <mxGeometry x="420" width="50" height="30" as="geometry">
            <mxRectangle width="50" height="30" as="alternateBounds" />
          </mxGeometry>
        </mxCell>
        <mxCell id="fNSqUUSDBfNgYPUXuudb-28" style="shape=tableRow;horizontal=0;startSize=0;swimlaneHead=0;swimlaneBody=0;strokeColor=inherit;top=0;left=0;bottom=0;right=0;collapsible=0;dropTarget=0;fillColor=none;points=[[0,0.5],[1,0.5]];portConstraint=eastwest;fontColor=#FFFFFF;" parent="fNSqUUSDBfNgYPUXuudb-3" vertex="1">
          <mxGeometry y="120" width="470" height="30" as="geometry" />
        </mxCell>
        <mxCell id="fNSqUUSDBfNgYPUXuudb-29" value="10" style="shape=partialRectangle;html=1;whiteSpace=wrap;connectable=0;strokeColor=inherit;overflow=hidden;fillColor=none;top=0;left=0;bottom=0;right=0;pointerEvents=1;align=right;spacingLeft=3;fontColor=#FFFFFF;" parent="fNSqUUSDBfNgYPUXuudb-28" vertex="1">
          <mxGeometry width="24" height="30" as="geometry">
            <mxRectangle width="24" height="30" as="alternateBounds" />
          </mxGeometry>
        </mxCell>
        <mxCell id="fNSqUUSDBfNgYPUXuudb-30" value="Display Name" style="shape=partialRectangle;html=1;whiteSpace=wrap;connectable=0;strokeColor=inherit;overflow=hidden;fillColor=none;top=0;left=0;bottom=0;right=0;pointerEvents=1;align=left;spacingLeft=3;fontColor=#FFFFFF;" parent="fNSqUUSDBfNgYPUXuudb-28" vertex="1">
          <mxGeometry x="24" width="156" height="30" as="geometry">
            <mxRectangle width="156" height="30" as="alternateBounds" />
          </mxGeometry>
        </mxCell>
        <mxCell id="fNSqUUSDBfNgYPUXuudb-31" value="UD_GFN_USR_NAME" style="shape=partialRectangle;html=1;whiteSpace=wrap;connectable=0;strokeColor=inherit;overflow=hidden;fillColor=none;top=0;left=0;bottom=0;right=0;pointerEvents=1;align=left;spacingLeft=3;fontColor=#FFFFFF;" parent="fNSqUUSDBfNgYPUXuudb-28" vertex="1">
          <mxGeometry x="180" width="190" height="30" as="geometry">
            <mxRectangle width="190" height="30" as="alternateBounds" />
          </mxGeometry>
        </mxCell>
        <mxCell id="fNSqUUSDBfNgYPUXuudb-32" value="String" style="shape=partialRectangle;html=1;whiteSpace=wrap;connectable=0;strokeColor=inherit;overflow=hidden;fillColor=none;top=0;left=0;bottom=0;right=0;pointerEvents=1;align=left;spacingLeft=3;fontColor=#FFFFFF;" parent="fNSqUUSDBfNgYPUXuudb-28" vertex="1">
          <mxGeometry x="370" width="50" height="30" as="geometry">
            <mxRectangle width="50" height="30" as="alternateBounds" />
          </mxGeometry>
        </mxCell>
        <mxCell id="fNSqUUSDBfNgYPUXuudb-33" value="320" style="shape=partialRectangle;html=1;whiteSpace=wrap;connectable=0;strokeColor=inherit;overflow=hidden;fillColor=none;top=0;left=0;bottom=0;right=0;pointerEvents=1;align=right;spacingLeft=3;fontColor=#FFFFFF;spacingRight=3;" parent="fNSqUUSDBfNgYPUXuudb-28" vertex="1">
          <mxGeometry x="420" width="50" height="30" as="geometry">
            <mxRectangle width="50" height="30" as="alternateBounds" />
          </mxGeometry>
        </mxCell>
        <mxCell id="fNSqUUSDBfNgYPUXuudb-34" style="shape=tableRow;horizontal=0;startSize=0;swimlaneHead=0;swimlaneBody=0;strokeColor=inherit;top=0;left=0;bottom=0;right=0;collapsible=0;dropTarget=0;fillColor=none;points=[[0,0.5],[1,0.5]];portConstraint=eastwest;fontColor=#FFFFFF;" parent="fNSqUUSDBfNgYPUXuudb-3" vertex="1">
          <mxGeometry y="150" width="470" height="30" as="geometry" />
        </mxCell>
        <mxCell id="fNSqUUSDBfNgYPUXuudb-35" value="12" style="shape=partialRectangle;html=1;whiteSpace=wrap;connectable=0;strokeColor=inherit;overflow=hidden;fillColor=none;top=0;left=0;bottom=0;right=0;pointerEvents=1;align=right;spacingLeft=3;fontColor=#FFFFFF;" parent="fNSqUUSDBfNgYPUXuudb-34" vertex="1">
          <mxGeometry width="24" height="30" as="geometry">
            <mxRectangle width="24" height="30" as="alternateBounds" />
          </mxGeometry>
        </mxCell>
        <mxCell id="fNSqUUSDBfNgYPUXuudb-36" value="e-Mail" style="shape=partialRectangle;html=1;whiteSpace=wrap;connectable=0;strokeColor=inherit;overflow=hidden;fillColor=none;top=0;left=0;bottom=0;right=0;pointerEvents=1;align=left;spacingLeft=3;fontColor=#FFFFFF;" parent="fNSqUUSDBfNgYPUXuudb-34" vertex="1">
          <mxGeometry x="24" width="156" height="30" as="geometry">
            <mxRectangle width="156" height="30" as="alternateBounds" />
          </mxGeometry>
        </mxCell>
        <mxCell id="fNSqUUSDBfNgYPUXuudb-37" value="UD_GFN_USR_MAIL" style="shape=partialRectangle;html=1;whiteSpace=wrap;connectable=0;strokeColor=inherit;overflow=hidden;fillColor=none;top=0;left=0;bottom=0;right=0;pointerEvents=1;align=left;spacingLeft=3;fontColor=#FFFFFF;" parent="fNSqUUSDBfNgYPUXuudb-34" vertex="1">
          <mxGeometry x="180" width="190" height="30" as="geometry">
            <mxRectangle width="190" height="30" as="alternateBounds" />
          </mxGeometry>
        </mxCell>
        <mxCell id="fNSqUUSDBfNgYPUXuudb-38" value="String" style="shape=partialRectangle;html=1;whiteSpace=wrap;connectable=0;strokeColor=inherit;overflow=hidden;fillColor=none;top=0;left=0;bottom=0;right=0;pointerEvents=1;align=left;spacingLeft=3;fontColor=#FFFFFF;" parent="fNSqUUSDBfNgYPUXuudb-34" vertex="1">
          <mxGeometry x="370" width="50" height="30" as="geometry">
            <mxRectangle width="50" height="30" as="alternateBounds" />
          </mxGeometry>
        </mxCell>
        <mxCell id="fNSqUUSDBfNgYPUXuudb-39" value="256" style="shape=partialRectangle;html=1;whiteSpace=wrap;connectable=0;strokeColor=inherit;overflow=hidden;fillColor=none;top=0;left=0;bottom=0;right=0;pointerEvents=1;align=right;spacingLeft=3;fontColor=#FFFFFF;spacingRight=3;" parent="fNSqUUSDBfNgYPUXuudb-34" vertex="1">
          <mxGeometry x="420" width="50" height="30" as="geometry">
            <mxRectangle width="50" height="30" as="alternateBounds" />
          </mxGeometry>
        </mxCell>
        <mxCell id="8jrgBdCmwkozynxsFcf1-2" style="shape=tableRow;horizontal=0;startSize=0;swimlaneHead=0;swimlaneBody=0;strokeColor=inherit;top=0;left=0;bottom=0;right=0;collapsible=0;dropTarget=0;fillColor=none;points=[[0,0.5],[1,0.5]];portConstraint=eastwest;fontColor=#FFFFFF;" parent="fNSqUUSDBfNgYPUXuudb-3" vertex="1">
          <mxGeometry y="180" width="470" height="30" as="geometry" />
        </mxCell>
        <mxCell id="8jrgBdCmwkozynxsFcf1-3" value="14" style="shape=partialRectangle;html=1;whiteSpace=wrap;connectable=0;strokeColor=inherit;overflow=hidden;fillColor=none;top=0;left=0;bottom=0;right=0;pointerEvents=1;align=right;spacingLeft=3;fontColor=#FFFFFF;" parent="8jrgBdCmwkozynxsFcf1-2" vertex="1">
          <mxGeometry width="24" height="30" as="geometry">
            <mxRectangle width="24" height="30" as="alternateBounds" />
          </mxGeometry>
        </mxCell>
        <mxCell id="8jrgBdCmwkozynxsFcf1-4" value="Administrator" style="shape=partialRectangle;html=1;whiteSpace=wrap;connectable=0;strokeColor=inherit;overflow=hidden;fillColor=none;top=0;left=0;bottom=0;right=0;pointerEvents=1;align=left;spacingLeft=3;fontColor=#FFFFFF;" parent="8jrgBdCmwkozynxsFcf1-2" vertex="1">
          <mxGeometry x="24" width="156" height="30" as="geometry">
            <mxRectangle width="156" height="30" as="alternateBounds" />
          </mxGeometry>
        </mxCell>
        <mxCell id="8jrgBdCmwkozynxsFcf1-5" value="UD_GFN_USR_ADM" style="shape=partialRectangle;html=1;whiteSpace=wrap;connectable=0;strokeColor=inherit;overflow=hidden;fillColor=none;top=0;left=0;bottom=0;right=0;pointerEvents=1;align=left;spacingLeft=3;fontColor=#FFFFFF;" parent="8jrgBdCmwkozynxsFcf1-2" vertex="1">
          <mxGeometry x="180" width="190" height="30" as="geometry">
            <mxRectangle width="190" height="30" as="alternateBounds" />
          </mxGeometry>
        </mxCell>
        <mxCell id="8jrgBdCmwkozynxsFcf1-6" value="Boolean" style="shape=partialRectangle;html=1;whiteSpace=wrap;connectable=0;strokeColor=inherit;overflow=hidden;fillColor=none;top=0;left=0;bottom=0;right=0;pointerEvents=1;align=left;spacingLeft=3;fontColor=#FFFFFF;" parent="8jrgBdCmwkozynxsFcf1-2" vertex="1">
          <mxGeometry x="370" width="50" height="30" as="geometry">
            <mxRectangle width="50" height="30" as="alternateBounds" />
          </mxGeometry>
        </mxCell>
        <mxCell id="8jrgBdCmwkozynxsFcf1-7" value="" style="shape=partialRectangle;html=1;whiteSpace=wrap;connectable=0;strokeColor=inherit;overflow=hidden;fillColor=none;top=0;left=0;bottom=0;right=0;pointerEvents=1;align=right;spacingLeft=3;fontColor=#FFFFFF;spacingRight=3;" parent="8jrgBdCmwkozynxsFcf1-2" vertex="1">
          <mxGeometry x="420" width="50" height="30" as="geometry">
            <mxRectangle width="50" height="30" as="alternateBounds" />
          </mxGeometry>
        </mxCell>
        <mxCell id="m5gcwOIUDK1LsqUUPqsP-1" style="shape=tableRow;horizontal=0;startSize=0;swimlaneHead=0;swimlaneBody=0;strokeColor=inherit;top=0;left=0;bottom=0;right=0;collapsible=0;dropTarget=0;fillColor=none;points=[[0,0.5],[1,0.5]];portConstraint=eastwest;fontColor=#FFFFFF;" parent="fNSqUUSDBfNgYPUXuudb-3" vertex="1">
          <mxGeometry y="210" width="470" height="30" as="geometry" />
        </mxCell>
        <mxCell id="m5gcwOIUDK1LsqUUPqsP-2" value="16" style="shape=partialRectangle;html=1;whiteSpace=wrap;connectable=0;strokeColor=inherit;overflow=hidden;fillColor=none;top=0;left=0;bottom=0;right=0;pointerEvents=1;align=right;spacingLeft=3;fontColor=#FFFFFF;" parent="m5gcwOIUDK1LsqUUPqsP-1" vertex="1">
          <mxGeometry width="24" height="30" as="geometry">
            <mxRectangle width="24" height="30" as="alternateBounds" />
          </mxGeometry>
        </mxCell>
        <mxCell id="m5gcwOIUDK1LsqUUPqsP-3" value="Organization" style="shape=partialRectangle;html=1;whiteSpace=wrap;connectable=0;strokeColor=inherit;overflow=hidden;fillColor=none;top=0;left=0;bottom=0;right=0;pointerEvents=1;align=left;spacingLeft=3;fontColor=#FFFFFF;" parent="m5gcwOIUDK1LsqUUPqsP-1" vertex="1">
          <mxGeometry x="24" width="156" height="30" as="geometry">
            <mxRectangle width="156" height="30" as="alternateBounds" />
          </mxGeometry>
        </mxCell>
        <mxCell id="m5gcwOIUDK1LsqUUPqsP-4" value="UD_GFN_USR_ORG" style="shape=partialRectangle;html=1;whiteSpace=wrap;connectable=0;strokeColor=inherit;overflow=hidden;fillColor=none;top=0;left=0;bottom=0;right=0;pointerEvents=1;align=left;spacingLeft=3;fontColor=#FFFFFF;" parent="m5gcwOIUDK1LsqUUPqsP-1" vertex="1">
          <mxGeometry x="180" width="190" height="30" as="geometry">
            <mxRectangle width="190" height="30" as="alternateBounds" />
          </mxGeometry>
        </mxCell>
        <mxCell id="m5gcwOIUDK1LsqUUPqsP-5" value="String" style="shape=partialRectangle;html=1;whiteSpace=wrap;connectable=0;strokeColor=inherit;overflow=hidden;fillColor=none;top=0;left=0;bottom=0;right=0;pointerEvents=1;align=left;spacingLeft=3;fontColor=#FFFFFF;" parent="m5gcwOIUDK1LsqUUPqsP-1" vertex="1">
          <mxGeometry x="370" width="50" height="30" as="geometry">
            <mxRectangle width="50" height="30" as="alternateBounds" />
          </mxGeometry>
        </mxCell>
        <mxCell id="m5gcwOIUDK1LsqUUPqsP-6" value="32" style="shape=partialRectangle;html=1;whiteSpace=wrap;connectable=0;strokeColor=inherit;overflow=hidden;fillColor=none;top=0;left=0;bottom=0;right=0;pointerEvents=1;align=right;spacingLeft=3;fontColor=#FFFFFF;spacingRight=3;" parent="m5gcwOIUDK1LsqUUPqsP-1" vertex="1">
          <mxGeometry x="420" width="50" height="30" as="geometry">
            <mxRectangle width="50" height="30" as="alternateBounds" />
          </mxGeometry>
        </mxCell>
        <mxCell id="fNSqUUSDBfNgYPUXuudb-40" value="GFN Role" style="rounded=0;whiteSpace=wrap;html=1;strokeColor=#5B9BD5;fontColor=#5B9BD5;fontStyle=1;verticalAlign=middle;align=left;spacingLeft=3;" parent="1" vertex="1">
          <mxGeometry x="340" y="530" width="400" height="30" as="geometry" />
        </mxCell>
        <mxCell id="fNSqUUSDBfNgYPUXuudb-41" value="" style="rounded=0;whiteSpace=wrap;html=1;strokeColor=#5B9BD5;fillColor=#f5f5f5;fontColor=#333333;" parent="1" vertex="1">
          <mxGeometry x="340" y="560" width="400" height="49.9999" as="geometry" />
        </mxCell>
        <mxCell id="fNSqUUSDBfNgYPUXuudb-42" value="" style="shape=table;startSize=0;container=1;collapsible=0;childLayout=tableLayout;fillColor=#5B9BD5;strokeColor=#5B9BD5;fontColor=#FFFFFF;spacingRight=3;spacingLeft=3;" parent="1" vertex="1">
          <mxGeometry x="350" y="570" width="380" height="30" as="geometry" />
        </mxCell>
        <mxCell id="fNSqUUSDBfNgYPUXuudb-43" style="shape=tableRow;horizontal=0;startSize=0;swimlaneHead=0;swimlaneBody=0;strokeColor=inherit;top=0;left=0;bottom=0;right=0;collapsible=0;dropTarget=0;fillColor=none;points=[[0,0.5],[1,0.5]];portConstraint=eastwest;fontColor=#FFFFFF;" parent="fNSqUUSDBfNgYPUXuudb-42" vertex="1">
          <mxGeometry width="380" height="30" as="geometry" />
        </mxCell>
        <mxCell id="fNSqUUSDBfNgYPUXuudb-44" value="2" style="shape=partialRectangle;html=1;whiteSpace=wrap;connectable=0;strokeColor=inherit;overflow=hidden;fillColor=none;top=0;left=0;bottom=0;right=0;pointerEvents=1;align=right;spacingLeft=3;fontColor=#FFFFFF;" parent="fNSqUUSDBfNgYPUXuudb-43" vertex="1">
          <mxGeometry width="20" height="30" as="geometry">
            <mxRectangle width="20" height="30" as="alternateBounds" />
          </mxGeometry>
        </mxCell>
        <mxCell id="fNSqUUSDBfNgYPUXuudb-45" value="Identifier" style="shape=partialRectangle;html=1;whiteSpace=wrap;connectable=0;strokeColor=inherit;overflow=hidden;fillColor=none;top=0;left=0;bottom=0;right=0;pointerEvents=1;align=left;spacingLeft=3;fontColor=#FFFFFF;" parent="fNSqUUSDBfNgYPUXuudb-43" vertex="1">
          <mxGeometry x="20" width="94" height="30" as="geometry">
            <mxRectangle width="94" height="30" as="alternateBounds" />
          </mxGeometry>
        </mxCell>
        <mxCell id="fNSqUUSDBfNgYPUXuudb-46" value="UD_GFN_URL_SID" style="shape=partialRectangle;html=1;whiteSpace=wrap;connectable=0;strokeColor=inherit;overflow=hidden;fillColor=none;top=0;left=0;bottom=0;right=0;pointerEvents=1;align=left;spacingLeft=3;fontColor=#FFFFFF;" parent="fNSqUUSDBfNgYPUXuudb-43" vertex="1">
          <mxGeometry x="114" width="172" height="30" as="geometry">
            <mxRectangle width="172" height="30" as="alternateBounds" />
          </mxGeometry>
        </mxCell>
        <mxCell id="fNSqUUSDBfNgYPUXuudb-47" value="String" style="shape=partialRectangle;html=1;whiteSpace=wrap;connectable=0;strokeColor=inherit;overflow=hidden;fillColor=none;top=0;left=0;bottom=0;right=0;pointerEvents=1;align=left;spacingLeft=3;fontColor=#FFFFFF;" parent="fNSqUUSDBfNgYPUXuudb-43" vertex="1">
          <mxGeometry x="286" width="50" height="30" as="geometry">
            <mxRectangle width="50" height="30" as="alternateBounds" />
          </mxGeometry>
        </mxCell>
        <mxCell id="fNSqUUSDBfNgYPUXuudb-48" value="128" style="shape=partialRectangle;whiteSpace=wrap;connectable=0;strokeColor=inherit;overflow=hidden;fillColor=none;top=0;left=0;bottom=0;right=0;pointerEvents=1;align=right;spacingLeft=3;fontColor=#FFFFFF;spacingRight=3;" parent="fNSqUUSDBfNgYPUXuudb-43" vertex="1">
          <mxGeometry x="336" width="44" height="30" as="geometry">
            <mxRectangle width="44" height="30" as="alternateBounds" />
          </mxGeometry>
        </mxCell>
        <mxCell id="fNSqUUSDBfNgYPUXuudb-71" value="" style="endArrow=diamondThin;html=1;rounded=0;exitX=1;exitY=1;exitDx=0;exitDy=0;strokeColor=#5B9BD5;startArrow=none;startFill=0;endFill=0;edgeStyle=orthogonalEdgeStyle;entryX=0.078;entryY=0.996;entryDx=0;entryDy=0;entryPerimeter=0;" parent="1" source="fNSqUUSDBfNgYPUXuudb-123" edge="1">
          <mxGeometry width="50" height="50" relative="1" as="geometry">
            <mxPoint x="300" y="562" as="sourcePoint" />
            <mxPoint x="288.22" y="300" as="targetPoint" />
            <Array as="points">
              <mxPoint x="288" y="462" />
            </Array>
          </mxGeometry>
        </mxCell>
        <mxCell id="fNSqUUSDBfNgYPUXuudb-72" value="Identity" style="rounded=0;whiteSpace=wrap;html=1;strokeColor=#7030A0;fontColor=#7030A0;fontStyle=1;verticalAlign=middle;align=left;spacingLeft=3;" parent="1" vertex="1">
          <mxGeometry x="7" y="70" width="200" height="30" as="geometry" />
        </mxCell>
        <mxCell id="fNSqUUSDBfNgYPUXuudb-73" value="" style="rounded=0;whiteSpace=wrap;html=1;strokeColor=#7030A0;fillColor=#f5f5f5;fontColor=#333333;" parent="1" vertex="1">
          <mxGeometry x="7" y="100" width="200" height="140" as="geometry" />
        </mxCell>
        <mxCell id="fNSqUUSDBfNgYPUXuudb-74" value="User Login" style="rounded=0;whiteSpace=wrap;html=1;strokeColor=#FFFFFF;fillColor=#7030A0;fontColor=#FFFFFF;align=left;spacingLeft=3;" parent="1" vertex="1">
          <mxGeometry x="14.873999999999995" y="106.08999999999997" width="180" height="30" as="geometry" />
        </mxCell>
        <mxCell id="fNSqUUSDBfNgYPUXuudb-75" value="" style="endArrow=oval;html=1;rounded=0;startArrow=oval;startFill=1;endFill=1;strokeColor=#7030A0;fontColor=#7030A0;labelBorderColor=#7030A0;spacingBottom=3;labelBackgroundColor=none;fontSize=17;" parent="1" source="fNSqUUSDBfNgYPUXuudb-74" target="fNSqUUSDBfNgYPUXuudb-16" edge="1">
          <mxGeometry width="50" height="50" relative="1" as="geometry">
            <mxPoint x="205" y="101" as="sourcePoint" />
            <mxPoint x="260" y="121" as="targetPoint" />
          </mxGeometry>
        </mxCell>
        <mxCell id="fNSqUUSDBfNgYPUXuudb-76" value="&amp;nbsp;T&amp;nbsp;" style="edgeLabel;html=1;align=center;verticalAlign=middle;resizable=0;points=[];fontSize=15;fontColor=#FFFFFF;labelBorderColor=#7030A0;labelBackgroundColor=#7030A0;spacingBottom=5;spacingLeft=3;spacingRight=3;" parent="fNSqUUSDBfNgYPUXuudb-75" vertex="1" connectable="0">
          <mxGeometry x="0.0012" y="-2" relative="1" as="geometry">
            <mxPoint as="offset" />
          </mxGeometry>
        </mxCell>
        <mxCell id="fNSqUUSDBfNgYPUXuudb-77" value="IT Resource" style="rounded=0;whiteSpace=wrap;html=1;strokeColor=#5B9BD5;fontColor=#5B9BD5;fontStyle=1;verticalAlign=middle;align=left;spacingLeft=3;" parent="1" vertex="1">
          <mxGeometry x="6" y="9" width="199.9996" height="30" as="geometry" />
        </mxCell>
        <mxCell id="fNSqUUSDBfNgYPUXuudb-78" value="" style="rounded=0;whiteSpace=wrap;html=1;strokeColor=#5B9BD5;fillColor=#f5f5f5;fontColor=#333333;" parent="1" vertex="1">
          <mxGeometry x="6" y="39" width="199.9996" height="41" as="geometry" />
        </mxCell>
        <mxCell id="fNSqUUSDBfNgYPUXuudb-79" value="Lookup" style="rounded=0;whiteSpace=wrap;html=1;strokeColor=#5B9BD5;fontColor=#5B9BD5;fontStyle=1;verticalAlign=middle;align=left;spacingLeft=3;" parent="1" vertex="1">
          <mxGeometry x="12" y="240" width="188" height="30" as="geometry" />
        </mxCell>
        <mxCell id="fNSqUUSDBfNgYPUXuudb-80" value="" style="rounded=0;whiteSpace=wrap;html=1;strokeColor=#5B9BD5;fillColor=#f5f5f5;fontColor=#333333;" parent="1" vertex="1">
          <mxGeometry x="12" y="270" width="188" height="341" as="geometry" />
        </mxCell>
        <mxCell id="fNSqUUSDBfNgYPUXuudb-81" value="1..*" style="text;strokeColor=none;align=center;fillColor=none;html=1;verticalAlign=middle;whiteSpace=wrap;rounded=0;fontColor=#5B9BD5;" parent="1" vertex="1">
          <mxGeometry x="311" y="330" width="28.3464" height="20.078699999999998" as="geometry" />
        </mxCell>
        <mxCell id="fNSqUUSDBfNgYPUXuudb-82" value="1" style="text;strokeColor=none;align=center;fillColor=none;html=1;verticalAlign=middle;whiteSpace=wrap;rounded=0;fontColor=#5B9BD5;" parent="1" vertex="1">
          <mxGeometry x="248.5" y="308.00064999999995" width="18.5039" height="20.078699999999998" as="geometry" />
        </mxCell>
        <mxCell id="fNSqUUSDBfNgYPUXuudb-83" value="1" style="text;strokeColor=none;align=center;fillColor=none;html=1;verticalAlign=middle;whiteSpace=wrap;rounded=0;fontColor=#5B9BD5;" parent="1" vertex="1">
          <mxGeometry x="287" y="308.00064999999995" width="18.5039" height="20.078699999999998" as="geometry" />
        </mxCell>
        <mxCell id="fNSqUUSDBfNgYPUXuudb-84" value="GFN.Role" style="rounded=0;whiteSpace=wrap;html=1;fillColor=#ffe6cc;strokeColor=#d79b00;" parent="1" vertex="1">
          <mxGeometry x="20" y="570.0394000000001" width="134" height="29.9212" as="geometry" />
        </mxCell>
        <mxCell id="fNSqUUSDBfNgYPUXuudb-87" value="GFN Endpoint" style="rounded=0;whiteSpace=wrap;html=1;fillColor=#ffe6cc;strokeColor=#d79b00;" parent="1" vertex="1">
          <mxGeometry x="27" y="47.50735" width="120" height="27.165300000000002" as="geometry" />
        </mxCell>
        <mxCell id="fNSqUUSDBfNgYPUXuudb-88" value="" style="endArrow=open;html=1;rounded=0;endFill=0;exitX=0;exitY=0.5;exitDx=0;exitDy=0;entryX=1;entryY=0.5;entryDx=0;entryDy=0;" parent="1" source="fNSqUUSDBfNgYPUXuudb-43" target="fNSqUUSDBfNgYPUXuudb-84" edge="1">
          <mxGeometry width="50" height="50" relative="1" as="geometry">
            <mxPoint x="830" y="513" as="sourcePoint" />
            <mxPoint x="210" y="591" as="targetPoint" />
          </mxGeometry>
        </mxCell>
        <mxCell id="fNSqUUSDBfNgYPUXuudb-91" value="" style="endArrow=open;html=1;rounded=0;endFill=0;entryX=1;entryY=0.5;entryDx=0;entryDy=0;" parent="1" target="fNSqUUSDBfNgYPUXuudb-87" edge="1">
          <mxGeometry width="50" height="50" relative="1" as="geometry">
            <mxPoint x="260" y="61" as="sourcePoint" />
            <mxPoint x="930" y="64.20999999999998" as="targetPoint" />
          </mxGeometry>
        </mxCell>
        <mxCell id="fNSqUUSDBfNgYPUXuudb-93" value="1" style="text;strokeColor=none;align=center;fillColor=none;html=1;verticalAlign=middle;whiteSpace=wrap;rounded=0;fontColor=#5B9BD5;" parent="1" vertex="1">
          <mxGeometry x="159.35000000000002" y="564.00065" width="18.5039" height="20.078699999999998" as="geometry" />
        </mxCell>
        <mxCell id="fNSqUUSDBfNgYPUXuudb-98" value="1..*" style="text;strokeColor=none;align=center;fillColor=none;html=1;verticalAlign=middle;whiteSpace=wrap;rounded=0;fontColor=#5B9BD5;" parent="1" vertex="1">
          <mxGeometry x="305.1732" y="564.00065" width="40" height="20.078699999999998" as="geometry" />
        </mxCell>
        <mxCell id="fNSqUUSDBfNgYPUXuudb-99" value="1..*" style="text;strokeColor=none;align=center;fillColor=none;html=1;verticalAlign=middle;whiteSpace=wrap;rounded=0;fontColor=#5B9BD5;" parent="1" vertex="1">
          <mxGeometry x="210" y="39.00064999999995" width="40" height="20.078699999999998" as="geometry" />
        </mxCell>
        <mxCell id="fNSqUUSDBfNgYPUXuudb-100" value="Target Account" style="rounded=0;whiteSpace=wrap;html=1;strokeColor=#5B9BD5;fontColor=#5B9BD5;fontStyle=1;verticalAlign=middle;align=left;spacingLeft=3;" parent="1" vertex="1">
          <mxGeometry x="820" y="9" width="180" height="30" as="geometry" />
        </mxCell>
        <mxCell id="fNSqUUSDBfNgYPUXuudb-103" value="" style="rounded=0;whiteSpace=wrap;html=1;strokeColor=#5B9BD5;fillColor=#f5f5f5;fontColor=#333333;" parent="1" vertex="1">
          <mxGeometry x="820" y="39" width="180" height="261" as="geometry" />
        </mxCell>
        <mxCell id="fNSqUUSDBfNgYPUXuudb-104" value="" style="shape=table;startSize=0;container=1;collapsible=0;childLayout=tableLayout;fillColor=#5B9BD5;strokeColor=#5B9BD5;fontColor=#FFFFFF;spacingRight=3;spacingLeft=3;" parent="1" vertex="1">
          <mxGeometry x="830" y="76.09" width="160" height="210" as="geometry" />
        </mxCell>
        <mxCell id="fNSqUUSDBfNgYPUXuudb-105" style="shape=tableRow;horizontal=0;startSize=0;swimlaneHead=0;swimlaneBody=0;strokeColor=inherit;top=0;left=0;bottom=0;right=0;collapsible=0;dropTarget=0;fillColor=none;points=[[0,0.5],[1,0.5]];portConstraint=eastwest;fontColor=#FFFFFF;" parent="fNSqUUSDBfNgYPUXuudb-104" vertex="1">
          <mxGeometry width="160" height="30" as="geometry" />
        </mxCell>
        <mxCell id="fNSqUUSDBfNgYPUXuudb-106" value="id" style="shape=partialRectangle;html=1;whiteSpace=wrap;connectable=0;strokeColor=#d6b656;overflow=hidden;fillColor=#fff2cc;top=0;left=0;bottom=0;right=0;pointerEvents=1;align=left;spacingLeft=3;" parent="fNSqUUSDBfNgYPUXuudb-105" vertex="1">
          <mxGeometry width="160" height="30" as="geometry">
            <mxRectangle width="160" height="30" as="alternateBounds" />
          </mxGeometry>
        </mxCell>
        <mxCell id="fNSqUUSDBfNgYPUXuudb-131" style="shape=tableRow;horizontal=0;startSize=0;swimlaneHead=0;swimlaneBody=0;strokeColor=inherit;top=0;left=0;bottom=0;right=0;collapsible=0;dropTarget=0;fillColor=none;points=[[0,0.5],[1,0.5]];portConstraint=eastwest;fontColor=#FFFFFF;" parent="fNSqUUSDBfNgYPUXuudb-104" vertex="1">
          <mxGeometry y="30" width="160" height="30" as="geometry" />
        </mxCell>
        <mxCell id="fNSqUUSDBfNgYPUXuudb-132" value="login" style="shape=partialRectangle;html=1;whiteSpace=wrap;connectable=0;strokeColor=#d6b656;overflow=hidden;fillColor=#fff2cc;top=0;left=0;bottom=0;right=0;pointerEvents=1;align=left;spacingLeft=3;" parent="fNSqUUSDBfNgYPUXuudb-131" vertex="1">
          <mxGeometry width="160" height="30" as="geometry">
            <mxRectangle width="160" height="30" as="alternateBounds" />
          </mxGeometry>
        </mxCell>
        <mxCell id="fNSqUUSDBfNgYPUXuudb-133" style="shape=tableRow;horizontal=0;startSize=0;swimlaneHead=0;swimlaneBody=0;strokeColor=inherit;top=0;left=0;bottom=0;right=0;collapsible=0;dropTarget=0;fillColor=none;points=[[0,0.5],[1,0.5]];portConstraint=eastwest;fontColor=#FFFFFF;" parent="fNSqUUSDBfNgYPUXuudb-104" vertex="1">
          <mxGeometry y="60" width="160" height="30" as="geometry" />
        </mxCell>
        <mxCell id="fNSqUUSDBfNgYPUXuudb-134" value="password" style="shape=partialRectangle;html=1;whiteSpace=wrap;connectable=0;strokeColor=#d6b656;overflow=hidden;fillColor=#fff2cc;top=0;left=0;bottom=0;right=0;pointerEvents=1;align=left;spacingLeft=3;" parent="fNSqUUSDBfNgYPUXuudb-133" vertex="1">
          <mxGeometry width="160" height="30" as="geometry">
            <mxRectangle width="160" height="30" as="alternateBounds" />
          </mxGeometry>
        </mxCell>
        <mxCell id="fNSqUUSDBfNgYPUXuudb-135" style="shape=tableRow;horizontal=0;startSize=0;swimlaneHead=0;swimlaneBody=0;strokeColor=inherit;top=0;left=0;bottom=0;right=0;collapsible=0;dropTarget=0;fillColor=none;points=[[0,0.5],[1,0.5]];portConstraint=eastwest;fontColor=#FFFFFF;" parent="fNSqUUSDBfNgYPUXuudb-104" vertex="1">
          <mxGeometry y="90" width="160" height="30" as="geometry" />
        </mxCell>
        <mxCell id="fNSqUUSDBfNgYPUXuudb-136" value="displayName" style="shape=partialRectangle;html=1;whiteSpace=wrap;connectable=0;strokeColor=#d6b656;overflow=hidden;fillColor=#fff2cc;top=0;left=0;bottom=0;right=0;pointerEvents=1;align=left;spacingLeft=3;" parent="fNSqUUSDBfNgYPUXuudb-135" vertex="1">
          <mxGeometry width="160" height="30" as="geometry">
            <mxRectangle width="160" height="30" as="alternateBounds" />
          </mxGeometry>
        </mxCell>
        <mxCell id="fNSqUUSDBfNgYPUXuudb-137" style="shape=tableRow;horizontal=0;startSize=0;swimlaneHead=0;swimlaneBody=0;strokeColor=inherit;top=0;left=0;bottom=0;right=0;collapsible=0;dropTarget=0;fillColor=none;points=[[0,0.5],[1,0.5]];portConstraint=eastwest;fontColor=#FFFFFF;" parent="fNSqUUSDBfNgYPUXuudb-104" vertex="1">
          <mxGeometry y="120" width="160" height="30" as="geometry" />
        </mxCell>
        <mxCell id="fNSqUUSDBfNgYPUXuudb-138" value="email" style="shape=partialRectangle;html=1;whiteSpace=wrap;connectable=0;strokeColor=#d6b656;overflow=hidden;fillColor=#fff2cc;top=0;left=0;bottom=0;right=0;pointerEvents=1;align=left;spacingLeft=3;" parent="fNSqUUSDBfNgYPUXuudb-137" vertex="1">
          <mxGeometry width="160" height="30" as="geometry">
            <mxRectangle width="160" height="30" as="alternateBounds" />
          </mxGeometry>
        </mxCell>
        <mxCell id="8jrgBdCmwkozynxsFcf1-26" style="shape=tableRow;horizontal=0;startSize=0;swimlaneHead=0;swimlaneBody=0;strokeColor=inherit;top=0;left=0;bottom=0;right=0;collapsible=0;dropTarget=0;fillColor=none;points=[[0,0.5],[1,0.5]];portConstraint=eastwest;fontColor=#FFFFFF;" parent="fNSqUUSDBfNgYPUXuudb-104" vertex="1">
          <mxGeometry y="150" width="160" height="30" as="geometry" />
        </mxCell>
        <mxCell id="8jrgBdCmwkozynxsFcf1-27" value="admin" style="shape=partialRectangle;html=1;whiteSpace=wrap;connectable=0;strokeColor=#d6b656;overflow=hidden;fillColor=#fff2cc;top=0;left=0;bottom=0;right=0;pointerEvents=1;align=left;spacingLeft=3;" parent="8jrgBdCmwkozynxsFcf1-26" vertex="1">
          <mxGeometry width="160" height="30" as="geometry">
            <mxRectangle width="160" height="30" as="alternateBounds" />
          </mxGeometry>
        </mxCell>
        <mxCell id="m5gcwOIUDK1LsqUUPqsP-31" style="shape=tableRow;horizontal=0;startSize=0;swimlaneHead=0;swimlaneBody=0;strokeColor=inherit;top=0;left=0;bottom=0;right=0;collapsible=0;dropTarget=0;fillColor=none;points=[[0,0.5],[1,0.5]];portConstraint=eastwest;fontColor=#FFFFFF;" parent="fNSqUUSDBfNgYPUXuudb-104" vertex="1">
          <mxGeometry y="180" width="160" height="30" as="geometry" />
        </mxCell>
        <mxCell id="m5gcwOIUDK1LsqUUPqsP-32" value="home" style="shape=partialRectangle;html=1;whiteSpace=wrap;connectable=0;strokeColor=#d6b656;overflow=hidden;fillColor=#fff2cc;top=0;left=0;bottom=0;right=0;pointerEvents=1;align=left;spacingLeft=3;" parent="m5gcwOIUDK1LsqUUPqsP-31" vertex="1">
          <mxGeometry width="160" height="30" as="geometry">
            <mxRectangle width="160" height="30" as="alternateBounds" />
          </mxGeometry>
        </mxCell>
        <mxCell id="fNSqUUSDBfNgYPUXuudb-141" value="" style="endArrow=none;html=1;rounded=0;startArrow=block;startFill=1;endFill=0;strokeColor=#7030A0;exitX=0;exitY=0.5;exitDx=0;exitDy=0;" parent="fNSqUUSDBfNgYPUXuudb-104" source="fNSqUUSDBfNgYPUXuudb-135" edge="1">
          <mxGeometry width="50" height="50" relative="1" as="geometry">
            <mxPoint y="104.5" as="sourcePoint" />
            <mxPoint x="-100" y="103.91" as="targetPoint" />
          </mxGeometry>
        </mxCell>
        <mxCell id="fNSqUUSDBfNgYPUXuudb-107" value="" style="endArrow=none;html=1;rounded=0;startArrow=block;startFill=1;endFill=0;strokeColor=#7030A0;" parent="1" source="fNSqUUSDBfNgYPUXuudb-10" target="fNSqUUSDBfNgYPUXuudb-105" edge="1">
          <mxGeometry width="50" height="50" relative="1" as="geometry">
            <mxPoint x="730" y="95" as="sourcePoint" />
            <mxPoint x="795" y="95" as="targetPoint" />
          </mxGeometry>
        </mxCell>
        <mxCell id="fNSqUUSDBfNgYPUXuudb-108" value="GFN Team" style="rounded=0;whiteSpace=wrap;html=1;strokeColor=#5B9BD5;fontColor=#5B9BD5;fontStyle=1;verticalAlign=middle;align=left;spacingLeft=3;" parent="1" vertex="1">
          <mxGeometry x="340" y="447" width="400" height="30" as="geometry" />
        </mxCell>
        <mxCell id="fNSqUUSDBfNgYPUXuudb-109" value="" style="rounded=0;whiteSpace=wrap;html=1;strokeColor=#5B9BD5;fillColor=#f5f5f5;fontColor=#333333;" parent="1" vertex="1">
          <mxGeometry x="340" y="477" width="400" height="50" as="geometry" />
        </mxCell>
        <mxCell id="fNSqUUSDBfNgYPUXuudb-110" value="" style="shape=table;startSize=0;container=1;collapsible=0;childLayout=tableLayout;fillColor=#5B9BD5;strokeColor=#5B9BD5;fontColor=#FFFFFF;spacingRight=3;spacingLeft=3;" parent="1" vertex="1">
          <mxGeometry x="350" y="487" width="380" height="30" as="geometry" />
        </mxCell>
        <mxCell id="fNSqUUSDBfNgYPUXuudb-111" style="shape=tableRow;horizontal=0;startSize=0;swimlaneHead=0;swimlaneBody=0;strokeColor=inherit;top=0;left=0;bottom=0;right=0;collapsible=0;dropTarget=0;fillColor=none;points=[[0,0.5],[1,0.5]];portConstraint=eastwest;fontColor=#FFFFFF;" parent="fNSqUUSDBfNgYPUXuudb-110" vertex="1">
          <mxGeometry width="380" height="30" as="geometry" />
        </mxCell>
        <mxCell id="fNSqUUSDBfNgYPUXuudb-112" value="2" style="shape=partialRectangle;html=1;whiteSpace=wrap;connectable=0;strokeColor=inherit;overflow=hidden;fillColor=none;top=0;left=0;bottom=0;right=0;pointerEvents=1;align=right;spacingLeft=3;fontColor=#FFFFFF;" parent="fNSqUUSDBfNgYPUXuudb-111" vertex="1">
          <mxGeometry width="20" height="30" as="geometry">
            <mxRectangle width="20" height="30" as="alternateBounds" />
          </mxGeometry>
        </mxCell>
        <mxCell id="fNSqUUSDBfNgYPUXuudb-113" value="Identifier" style="shape=partialRectangle;html=1;whiteSpace=wrap;connectable=0;strokeColor=inherit;overflow=hidden;fillColor=none;top=0;left=0;bottom=0;right=0;pointerEvents=1;align=left;spacingLeft=3;fontColor=#FFFFFF;" parent="fNSqUUSDBfNgYPUXuudb-111" vertex="1">
          <mxGeometry x="20" width="94" height="30" as="geometry">
            <mxRectangle width="94" height="30" as="alternateBounds" />
          </mxGeometry>
        </mxCell>
        <mxCell id="fNSqUUSDBfNgYPUXuudb-114" value="UD_GFN_TRL_SID" style="shape=partialRectangle;html=1;whiteSpace=wrap;connectable=0;strokeColor=inherit;overflow=hidden;fillColor=none;top=0;left=0;bottom=0;right=0;pointerEvents=1;align=left;spacingLeft=3;fontColor=#FFFFFF;" parent="fNSqUUSDBfNgYPUXuudb-111" vertex="1">
          <mxGeometry x="114" width="172" height="30" as="geometry">
            <mxRectangle width="172" height="30" as="alternateBounds" />
          </mxGeometry>
        </mxCell>
        <mxCell id="fNSqUUSDBfNgYPUXuudb-115" value="String&#x9;" style="shape=partialRectangle;html=1;whiteSpace=wrap;connectable=0;strokeColor=inherit;overflow=hidden;fillColor=none;top=0;left=0;bottom=0;right=0;pointerEvents=1;align=left;spacingLeft=3;fontColor=#FFFFFF;" parent="fNSqUUSDBfNgYPUXuudb-111" vertex="1">
          <mxGeometry x="286" width="50" height="30" as="geometry">
            <mxRectangle width="50" height="30" as="alternateBounds" />
          </mxGeometry>
        </mxCell>
        <mxCell id="fNSqUUSDBfNgYPUXuudb-116" value="32" style="shape=partialRectangle;whiteSpace=wrap;connectable=0;strokeColor=inherit;overflow=hidden;fillColor=none;top=0;left=0;bottom=0;right=0;pointerEvents=1;align=right;spacingLeft=3;fontColor=#FFFFFF;spacingRight=3;" parent="fNSqUUSDBfNgYPUXuudb-111" vertex="1">
          <mxGeometry x="336" width="44" height="30" as="geometry">
            <mxRectangle width="44" height="30" as="alternateBounds" />
          </mxGeometry>
        </mxCell>
        <mxCell id="fNSqUUSDBfNgYPUXuudb-117" value="GFN.Team" style="rounded=0;whiteSpace=wrap;html=1;fillColor=#ffe6cc;strokeColor=#d79b00;" parent="1" vertex="1">
          <mxGeometry x="20" y="487.0394000000001" width="134" height="29.9212" as="geometry" />
        </mxCell>
        <mxCell id="fNSqUUSDBfNgYPUXuudb-118" value="" style="endArrow=open;html=1;rounded=0;endFill=0;exitX=0;exitY=0.5;exitDx=0;exitDy=0;entryX=1;entryY=0.5;entryDx=0;entryDy=0;" parent="1" source="fNSqUUSDBfNgYPUXuudb-111" target="fNSqUUSDBfNgYPUXuudb-117" edge="1">
          <mxGeometry width="50" height="50" relative="1" as="geometry">
            <mxPoint x="830" y="430" as="sourcePoint" />
            <mxPoint x="210" y="501" as="targetPoint" />
          </mxGeometry>
        </mxCell>
        <mxCell id="fNSqUUSDBfNgYPUXuudb-119" value="1" style="text;strokeColor=none;align=center;fillColor=none;html=1;verticalAlign=middle;whiteSpace=wrap;rounded=0;fontColor=#5B9BD5;" parent="1" vertex="1">
          <mxGeometry x="159.35000000000002" y="481.00064999999995" width="18.5039" height="20.078699999999998" as="geometry" />
        </mxCell>
        <mxCell id="fNSqUUSDBfNgYPUXuudb-120" value="1..*" style="text;strokeColor=none;align=center;fillColor=none;html=1;verticalAlign=middle;whiteSpace=wrap;rounded=0;fontColor=#5B9BD5;" parent="1" vertex="1">
          <mxGeometry x="305.1732" y="481.00064999999995" width="40" height="20.078699999999998" as="geometry" />
        </mxCell>
        <mxCell id="fNSqUUSDBfNgYPUXuudb-121" value="" style="endArrow=diamondThin;html=1;rounded=0;strokeColor=#5B9BD5;startArrow=none;startFill=0;endFill=0;edgeStyle=orthogonalEdgeStyle;entryX=0.039;entryY=1;entryDx=0;entryDy=0;entryPerimeter=0;exitX=0;exitY=0.5;exitDx=0;exitDy=0;" parent="1" source="fNSqUUSDBfNgYPUXuudb-40" edge="1">
          <mxGeometry width="50" height="50" relative="1" as="geometry">
            <mxPoint x="290" y="620" as="sourcePoint" />
            <mxPoint x="269.1099999999999" y="300" as="targetPoint" />
          </mxGeometry>
        </mxCell>
        <mxCell id="fNSqUUSDBfNgYPUXuudb-122" value="1" style="text;strokeColor=none;align=center;fillColor=none;html=1;verticalAlign=middle;whiteSpace=wrap;rounded=0;fontColor=#5B9BD5;" parent="1" vertex="1">
          <mxGeometry x="268" y="308.00064999999995" width="18.5039" height="20.078699999999998" as="geometry" />
        </mxCell>
        <mxCell id="fNSqUUSDBfNgYPUXuudb-123" value="1..*" style="text;strokeColor=none;align=center;fillColor=none;html=1;verticalAlign=middle;whiteSpace=wrap;rounded=0;fontColor=#5B9BD5;" parent="1" vertex="1">
          <mxGeometry x="311" y="442" width="28.3464" height="20.078699999999998" as="geometry" />
        </mxCell>
        <mxCell id="fNSqUUSDBfNgYPUXuudb-125" value="Display Name" style="rounded=0;whiteSpace=wrap;html=1;strokeColor=#FFFFFF;fillColor=#7030A0;fontColor=#FFFFFF;align=left;spacingLeft=3;" parent="1" vertex="1">
          <mxGeometry x="14.873999999999995" y="166.09" width="180" height="30" as="geometry" />
        </mxCell>
        <mxCell id="fNSqUUSDBfNgYPUXuudb-127" value="E-Mail" style="rounded=0;whiteSpace=wrap;html=1;strokeColor=#FFFFFF;fillColor=#7030A0;fontColor=#FFFFFF;align=left;spacingLeft=3;" parent="1" vertex="1">
          <mxGeometry x="14.873999999999995" y="196.09" width="180" height="30" as="geometry" />
        </mxCell>
        <mxCell id="fNSqUUSDBfNgYPUXuudb-128" value="" style="endArrow=oval;html=1;rounded=0;startArrow=oval;startFill=1;endFill=1;strokeColor=#7030A0;fontColor=#7030A0;labelBorderColor=#7030A0;spacingBottom=3;labelBackgroundColor=none;fontSize=17;exitX=1;exitY=0.5;exitDx=0;exitDy=0;entryX=0;entryY=0.5;entryDx=0;entryDy=0;" parent="1" source="fNSqUUSDBfNgYPUXuudb-125" target="fNSqUUSDBfNgYPUXuudb-28" edge="1">
          <mxGeometry width="50" height="50" relative="1" as="geometry">
            <mxPoint x="204" y="132" as="sourcePoint" />
            <mxPoint x="260" y="181.09000000000003" as="targetPoint" />
          </mxGeometry>
        </mxCell>
        <mxCell id="fNSqUUSDBfNgYPUXuudb-130" value="" style="endArrow=oval;html=1;rounded=0;startArrow=oval;startFill=1;endFill=1;strokeColor=#7030A0;fontColor=#7030A0;labelBorderColor=#7030A0;spacingBottom=3;labelBackgroundColor=none;fontSize=17;exitX=1;exitY=0.5;exitDx=0;exitDy=0;entryX=0;entryY=0.5;entryDx=0;entryDy=0;" parent="1" source="fNSqUUSDBfNgYPUXuudb-127" target="fNSqUUSDBfNgYPUXuudb-34" edge="1">
          <mxGeometry width="50" height="50" relative="1" as="geometry">
            <mxPoint x="224" y="271" as="sourcePoint" />
            <mxPoint x="260" y="360.09000000000003" as="targetPoint" />
          </mxGeometry>
        </mxCell>
        <mxCell id="fNSqUUSDBfNgYPUXuudb-139" value="" style="endArrow=none;html=1;rounded=0;startArrow=block;startFill=1;endFill=0;strokeColor=#7030A0;" parent="1" edge="1">
          <mxGeometry width="50" height="50" relative="1" as="geometry">
            <mxPoint x="830" y="120" as="sourcePoint" />
            <mxPoint x="730" y="120.59" as="targetPoint" />
          </mxGeometry>
        </mxCell>
        <mxCell id="fNSqUUSDBfNgYPUXuudb-142" value="" style="endArrow=none;html=1;rounded=0;startArrow=block;startFill=1;endFill=0;strokeColor=#7030A0;" parent="1" edge="1">
          <mxGeometry width="50" height="50" relative="1" as="geometry">
            <mxPoint x="830" y="211" as="sourcePoint" />
            <mxPoint x="730" y="210.59" as="targetPoint" />
          </mxGeometry>
        </mxCell>
        <mxCell id="8jrgBdCmwkozynxsFcf1-30" value="" style="endArrow=none;html=1;rounded=0;startArrow=block;startFill=1;endFill=0;strokeColor=#7030A0;" parent="1" edge="1">
          <mxGeometry width="50" height="50" relative="1" as="geometry">
            <mxPoint x="830" y="240" as="sourcePoint" />
            <mxPoint x="730" y="240" as="targetPoint" />
          </mxGeometry>
        </mxCell>
        <mxCell id="YOMdDiHvJ75YppgQue83-108" value="Password" style="rounded=0;whiteSpace=wrap;html=1;strokeColor=#FFFFFF;fillColor=#7030A0;fontColor=#FFFFFF;align=left;spacingLeft=3;" parent="1" vertex="1">
          <mxGeometry x="14.873999999999995" y="136.09" width="180" height="30" as="geometry" />
        </mxCell>
        <mxCell id="YOMdDiHvJ75YppgQue83-109" value="" style="endArrow=oval;html=1;rounded=0;startArrow=oval;startFill=1;endFill=1;strokeColor=#7030A0;fontColor=#7030A0;labelBorderColor=#7030A0;spacingBottom=3;labelBackgroundColor=none;fontSize=17;exitX=1;exitY=0.5;exitDx=0;exitDy=0;entryX=0;entryY=0.5;entryDx=0;entryDy=0;" parent="1" source="YOMdDiHvJ75YppgQue83-108" target="fNSqUUSDBfNgYPUXuudb-22" edge="1">
          <mxGeometry width="50" height="50" relative="1" as="geometry">
            <mxPoint x="195" y="150.59" as="sourcePoint" />
            <mxPoint x="260" y="150.68000000000004" as="targetPoint" />
          </mxGeometry>
        </mxCell>
        <mxCell id="Smq7ZCun-_wuMZIQ3JeF-10" value="GFN Organization" style="rounded=0;whiteSpace=wrap;html=1;strokeColor=#5B9BD5;fontColor=#5B9BD5;fontStyle=1;verticalAlign=middle;align=left;spacingLeft=3;" parent="1" vertex="1">
          <mxGeometry x="340" y="335" width="399.35" height="30" as="geometry" />
        </mxCell>
        <mxCell id="Smq7ZCun-_wuMZIQ3JeF-11" value="" style="rounded=0;whiteSpace=wrap;html=1;strokeColor=#5B9BD5;fillColor=#f5f5f5;fontColor=#333333;" parent="1" vertex="1">
          <mxGeometry x="340" y="365" width="399.35" height="77.1652" as="geometry" />
        </mxCell>
        <mxCell id="Smq7ZCun-_wuMZIQ3JeF-12" value="" style="shape=table;startSize=0;container=1;collapsible=0;childLayout=tableLayout;fillColor=#5B9BD5;strokeColor=#5B9BD5;fontColor=#FFFFFF;spacingRight=3;spacingLeft=3;" parent="1" vertex="1">
          <mxGeometry x="350" y="375" width="379.35" height="60" as="geometry" />
        </mxCell>
        <mxCell id="Smq7ZCun-_wuMZIQ3JeF-13" style="shape=tableRow;horizontal=0;startSize=0;swimlaneHead=0;swimlaneBody=0;strokeColor=inherit;top=0;left=0;bottom=0;right=0;collapsible=0;dropTarget=0;fillColor=none;points=[[0,0.5],[1,0.5]];portConstraint=eastwest;fontColor=#FFFFFF;" parent="Smq7ZCun-_wuMZIQ3JeF-12" vertex="1">
          <mxGeometry width="379.35" height="30" as="geometry" />
        </mxCell>
        <mxCell id="Smq7ZCun-_wuMZIQ3JeF-14" value="2" style="shape=partialRectangle;html=1;whiteSpace=wrap;connectable=0;strokeColor=inherit;overflow=hidden;fillColor=none;top=0;left=0;bottom=0;right=0;pointerEvents=1;align=right;spacingLeft=3;fontColor=#FFFFFF;" parent="Smq7ZCun-_wuMZIQ3JeF-13" vertex="1">
          <mxGeometry width="20" height="30" as="geometry">
            <mxRectangle width="20" height="30" as="alternateBounds" />
          </mxGeometry>
        </mxCell>
        <mxCell id="Smq7ZCun-_wuMZIQ3JeF-15" value="Identifier" style="shape=partialRectangle;html=1;whiteSpace=wrap;connectable=0;strokeColor=inherit;overflow=hidden;fillColor=none;top=0;left=0;bottom=0;right=0;pointerEvents=1;align=left;spacingLeft=3;fontColor=#FFFFFF;" parent="Smq7ZCun-_wuMZIQ3JeF-13" vertex="1">
          <mxGeometry x="20" width="94" height="30" as="geometry">
            <mxRectangle width="94" height="30" as="alternateBounds" />
          </mxGeometry>
        </mxCell>
        <mxCell id="Smq7ZCun-_wuMZIQ3JeF-16" value="UD_GFN_ORL_SID" style="shape=partialRectangle;html=1;whiteSpace=wrap;connectable=0;strokeColor=inherit;overflow=hidden;fillColor=none;top=0;left=0;bottom=0;right=0;pointerEvents=1;align=left;spacingLeft=3;fontColor=#FFFFFF;" parent="Smq7ZCun-_wuMZIQ3JeF-13" vertex="1">
          <mxGeometry x="114" width="172" height="30" as="geometry">
            <mxRectangle width="172" height="30" as="alternateBounds" />
          </mxGeometry>
        </mxCell>
        <mxCell id="Smq7ZCun-_wuMZIQ3JeF-17" value="String" style="shape=partialRectangle;html=1;whiteSpace=wrap;connectable=0;strokeColor=inherit;overflow=hidden;fillColor=none;top=0;left=0;bottom=0;right=0;pointerEvents=1;align=left;spacingLeft=3;fontColor=#FFFFFF;" parent="Smq7ZCun-_wuMZIQ3JeF-13" vertex="1">
          <mxGeometry x="286" width="50" height="30" as="geometry">
            <mxRectangle width="50" height="30" as="alternateBounds" />
          </mxGeometry>
        </mxCell>
        <mxCell id="Smq7ZCun-_wuMZIQ3JeF-18" value="32" style="shape=partialRectangle;whiteSpace=wrap;connectable=0;strokeColor=inherit;overflow=hidden;fillColor=none;top=0;left=0;bottom=0;right=0;pointerEvents=1;align=right;spacingLeft=3;fontColor=#FFFFFF;spacingRight=3;" parent="Smq7ZCun-_wuMZIQ3JeF-13" vertex="1">
          <mxGeometry x="336" width="43" height="30" as="geometry">
            <mxRectangle width="43" height="30" as="alternateBounds" />
          </mxGeometry>
        </mxCell>
        <mxCell id="Smq7ZCun-_wuMZIQ3JeF-19" style="shape=tableRow;horizontal=0;startSize=0;swimlaneHead=0;swimlaneBody=0;strokeColor=inherit;top=0;left=0;bottom=0;right=0;collapsible=0;dropTarget=0;fillColor=none;points=[[0,0.5],[1,0.5]];portConstraint=eastwest;fontColor=#FFFFFF;" parent="Smq7ZCun-_wuMZIQ3JeF-12" vertex="1">
          <mxGeometry y="30" width="379.35" height="30" as="geometry" />
        </mxCell>
        <mxCell id="Smq7ZCun-_wuMZIQ3JeF-20" value="4" style="shape=partialRectangle;html=1;whiteSpace=wrap;connectable=0;strokeColor=inherit;overflow=hidden;fillColor=none;top=0;left=0;bottom=0;right=0;pointerEvents=1;align=right;spacingLeft=3;fontColor=#FFFFFF;" parent="Smq7ZCun-_wuMZIQ3JeF-19" vertex="1">
          <mxGeometry width="20" height="30" as="geometry">
            <mxRectangle width="20" height="30" as="alternateBounds" />
          </mxGeometry>
        </mxCell>
        <mxCell id="Smq7ZCun-_wuMZIQ3JeF-21" value="Role" style="shape=partialRectangle;html=1;whiteSpace=wrap;connectable=0;strokeColor=inherit;overflow=hidden;fillColor=none;top=0;left=0;bottom=0;right=0;pointerEvents=1;align=left;spacingLeft=3;fontColor=#FFFFFF;" parent="Smq7ZCun-_wuMZIQ3JeF-19" vertex="1">
          <mxGeometry x="20" width="94" height="30" as="geometry">
            <mxRectangle width="94" height="30" as="alternateBounds" />
          </mxGeometry>
        </mxCell>
        <mxCell id="Smq7ZCun-_wuMZIQ3JeF-22" value="UD_GFN_ORL_RID" style="shape=partialRectangle;html=1;whiteSpace=wrap;connectable=0;strokeColor=inherit;overflow=hidden;fillColor=none;top=0;left=0;bottom=0;right=0;pointerEvents=1;align=left;spacingLeft=3;fontColor=#FFFFFF;" parent="Smq7ZCun-_wuMZIQ3JeF-19" vertex="1">
          <mxGeometry x="114" width="172" height="30" as="geometry">
            <mxRectangle width="172" height="30" as="alternateBounds" />
          </mxGeometry>
        </mxCell>
        <mxCell id="Smq7ZCun-_wuMZIQ3JeF-23" value="String" style="shape=partialRectangle;html=1;whiteSpace=wrap;connectable=0;strokeColor=inherit;overflow=hidden;fillColor=none;top=0;left=0;bottom=0;right=0;pointerEvents=1;align=left;spacingLeft=3;fontColor=#FFFFFF;" parent="Smq7ZCun-_wuMZIQ3JeF-19" vertex="1">
          <mxGeometry x="286" width="50" height="30" as="geometry">
            <mxRectangle width="50" height="30" as="alternateBounds" />
          </mxGeometry>
        </mxCell>
        <mxCell id="Smq7ZCun-_wuMZIQ3JeF-24" value="32" style="shape=partialRectangle;whiteSpace=wrap;connectable=0;strokeColor=inherit;overflow=hidden;fillColor=none;top=0;left=0;bottom=0;right=0;pointerEvents=1;align=right;spacingLeft=3;fontColor=#FFFFFF;spacingRight=3;" parent="Smq7ZCun-_wuMZIQ3JeF-19" vertex="1">
          <mxGeometry x="336" width="43" height="30" as="geometry">
            <mxRectangle width="43" height="30" as="alternateBounds" />
          </mxGeometry>
        </mxCell>
        <mxCell id="Smq7ZCun-_wuMZIQ3JeF-25" value="GFN.Organization" style="rounded=0;whiteSpace=wrap;html=1;fillColor=#ffe6cc;strokeColor=#d79b00;" parent="1" vertex="1">
          <mxGeometry x="23" y="315.0394000000001" width="134" height="29.9212" as="geometry" />
        </mxCell>
        <mxCell id="Smq7ZCun-_wuMZIQ3JeF-26" value="GFN.Organization.Role" style="rounded=0;whiteSpace=wrap;html=1;fillColor=#ffe6cc;strokeColor=#d79b00;" parent="1" vertex="1">
          <mxGeometry x="23" y="405.0394000000001" width="134" height="29.9212" as="geometry" />
        </mxCell>
        <mxCell id="Smq7ZCun-_wuMZIQ3JeF-27" value="" style="endArrow=open;html=1;rounded=0;endFill=0;entryX=1;entryY=0.5;entryDx=0;entryDy=0;exitX=0;exitY=0.5;exitDx=0;exitDy=0;edgeStyle=orthogonalEdgeStyle;" parent="1" source="Smq7ZCun-_wuMZIQ3JeF-13" target="Smq7ZCun-_wuMZIQ3JeF-25" edge="1">
          <mxGeometry width="50" height="50" relative="1" as="geometry">
            <mxPoint x="350" y="471" as="sourcePoint" />
            <mxPoint x="210" y="470" as="targetPoint" />
            <Array as="points">
              <mxPoint x="210" y="390" />
              <mxPoint x="210" y="330" />
            </Array>
          </mxGeometry>
        </mxCell>
        <mxCell id="Smq7ZCun-_wuMZIQ3JeF-28" value="1" style="text;strokeColor=none;align=center;fillColor=none;html=1;verticalAlign=middle;whiteSpace=wrap;rounded=0;fontColor=#5B9BD5;" parent="1" vertex="1">
          <mxGeometry x="159.35000000000002" y="308.00064999999995" width="18.5039" height="20.078699999999998" as="geometry" />
        </mxCell>
        <mxCell id="Smq7ZCun-_wuMZIQ3JeF-29" value="1..*" style="text;strokeColor=none;align=center;fillColor=none;html=1;verticalAlign=middle;whiteSpace=wrap;rounded=0;fontColor=#5B9BD5;" parent="1" vertex="1">
          <mxGeometry x="305.1732" y="369.00064999999995" width="40" height="20.078699999999998" as="geometry" />
        </mxCell>
        <mxCell id="Smq7ZCun-_wuMZIQ3JeF-30" value="" style="endArrow=open;html=1;rounded=0;endFill=0;exitX=0;exitY=0.5;exitDx=0;exitDy=0;entryX=1;entryY=0.5;entryDx=0;entryDy=0;" parent="1" source="Smq7ZCun-_wuMZIQ3JeF-19" target="Smq7ZCun-_wuMZIQ3JeF-26" edge="1">
          <mxGeometry width="50" height="50" relative="1" as="geometry">
            <mxPoint x="729.35" y="495.0799999999999" as="sourcePoint" />
            <mxPoint x="210" y="501" as="targetPoint" />
          </mxGeometry>
        </mxCell>
        <mxCell id="Smq7ZCun-_wuMZIQ3JeF-31" value="1" style="text;strokeColor=none;align=center;fillColor=none;html=1;verticalAlign=middle;whiteSpace=wrap;rounded=0;fontColor=#5B9BD5;" parent="1" vertex="1">
          <mxGeometry x="159.35000000000002" y="398.0806499999999" width="18.5039" height="20.078699999999998" as="geometry" />
        </mxCell>
        <mxCell id="Smq7ZCun-_wuMZIQ3JeF-32" value="1..*" style="text;strokeColor=none;align=center;fillColor=none;html=1;verticalAlign=middle;whiteSpace=wrap;rounded=0;fontColor=#5B9BD5;" parent="1" vertex="1">
          <mxGeometry x="305.1732" y="398.0806499999999" width="40" height="20.078699999999998" as="geometry" />
        </mxCell>
        <mxCell id="Smq7ZCun-_wuMZIQ3JeF-34" value="" style="endArrow=diamondThin;html=1;rounded=0;exitX=0;exitY=0.5;exitDx=0;exitDy=0;strokeColor=#5B9BD5;startArrow=none;startFill=0;endFill=0;edgeStyle=orthogonalEdgeStyle;" parent="1" source="Smq7ZCun-_wuMZIQ3JeF-10" edge="1">
          <mxGeometry width="50" height="50" relative="1" as="geometry">
            <mxPoint x="329" y="473" as="sourcePoint" />
            <mxPoint x="308" y="300" as="targetPoint" />
          </mxGeometry>
        </mxCell>
        <mxCell id="Smq7ZCun-_wuMZIQ3JeF-35" value="1..*" style="text;strokeColor=none;align=center;fillColor=none;html=1;verticalAlign=middle;whiteSpace=wrap;rounded=0;fontColor=#5B9BD5;" parent="1" vertex="1">
          <mxGeometry x="311" y="523" width="28.3464" height="20.078699999999998" as="geometry" />
        </mxCell>
        <mxCell id="Smq7ZCun-_wuMZIQ3JeF-36" value="1" style="text;strokeColor=none;align=center;fillColor=none;html=1;verticalAlign=middle;whiteSpace=wrap;rounded=0;fontColor=#5B9BD5;" parent="1" vertex="1">
          <mxGeometry x="307" y="308.00064999999995" width="18.5039" height="20.078699999999998" as="geometry" />
        </mxCell>
        <mxCell id="YOMdDiHvJ75YppgQue83-215" value="" style="endArrow=none;html=1;rounded=0;startArrow=block;startFill=1;endFill=0;strokeColor=#7030A0;exitX=0;exitY=0.5;exitDx=0;exitDy=0;entryX=1;entryY=0.5;entryDx=0;entryDy=0;" parent="1" source="fNSqUUSDBfNgYPUXuudb-133" target="fNSqUUSDBfNgYPUXuudb-22" edge="1">
          <mxGeometry width="50" height="50" relative="1" as="geometry">
            <mxPoint x="980" y="190.59" as="sourcePoint" />
            <mxPoint x="740" y="190.59" as="targetPoint" />
          </mxGeometry>
        </mxCell>
        <mxCell id="dxb3g4jdBgxlE4eDlorj-1" value="" style="endArrow=none;html=1;rounded=0;startArrow=block;startFill=1;endFill=0;strokeColor=#7030A0;entryX=1;entryY=0.5;entryDx=0;entryDy=0;exitX=0;exitY=0.5;exitDx=0;exitDy=0;" parent="1" source="m5gcwOIUDK1LsqUUPqsP-31" target="m5gcwOIUDK1LsqUUPqsP-1" edge="1">
          <mxGeometry width="50" height="50" relative="1" as="geometry">
            <mxPoint x="980" y="250" as="sourcePoint" />
            <mxPoint x="740" y="250" as="targetPoint" />
          </mxGeometry>
        </mxCell>
        <mxCell id="dxb3g4jdBgxlE4eDlorj-8" value="Target Role" style="rounded=0;whiteSpace=wrap;html=1;strokeColor=#5B9BD5;fontColor=#5B9BD5;fontStyle=1;verticalAlign=middle;align=left;spacingLeft=3;" parent="1" vertex="1">
          <mxGeometry x="820" y="530" width="180" height="30" as="geometry" />
        </mxCell>
        <mxCell id="dxb3g4jdBgxlE4eDlorj-9" value="" style="rounded=0;whiteSpace=wrap;html=1;strokeColor=#5B9BD5;fillColor=#f5f5f5;fontColor=#333333;" parent="1" vertex="1">
          <mxGeometry x="820" y="560.00005" width="180" height="49.9999" as="geometry" />
        </mxCell>
        <mxCell id="dxb3g4jdBgxlE4eDlorj-10" value="Target Team" style="rounded=0;whiteSpace=wrap;html=1;strokeColor=#5B9BD5;fontColor=#5B9BD5;fontStyle=1;verticalAlign=middle;align=left;spacingLeft=3;" parent="1" vertex="1">
          <mxGeometry x="820" y="447" width="180" height="30" as="geometry" />
        </mxCell>
        <mxCell id="dxb3g4jdBgxlE4eDlorj-11" value="" style="rounded=0;whiteSpace=wrap;html=1;strokeColor=#5B9BD5;fillColor=#f5f5f5;fontColor=#333333;" parent="1" vertex="1">
          <mxGeometry x="820" y="477.00005" width="180" height="49.9999" as="geometry" />
        </mxCell>
        <mxCell id="dxb3g4jdBgxlE4eDlorj-12" value="Target Organization" style="rounded=0;whiteSpace=wrap;html=1;strokeColor=#5B9BD5;fontColor=#5B9BD5;fontStyle=1;verticalAlign=middle;align=left;spacingLeft=3;" parent="1" vertex="1">
          <mxGeometry x="820" y="335" width="180" height="30" as="geometry" />
        </mxCell>
        <mxCell id="dxb3g4jdBgxlE4eDlorj-13" value="" style="rounded=0;whiteSpace=wrap;html=1;strokeColor=#5B9BD5;fillColor=#f5f5f5;fontColor=#333333;" parent="1" vertex="1">
          <mxGeometry x="820" y="365" width="180" height="77.1652" as="geometry" />
        </mxCell>
        <mxCell id="dxb3g4jdBgxlE4eDlorj-14" value="" style="shape=table;startSize=0;container=1;collapsible=0;childLayout=tableLayout;fillColor=#5B9BD5;strokeColor=#5B9BD5;fontColor=#FFFFFF;spacingRight=3;spacingLeft=3;" parent="1" vertex="1">
          <mxGeometry x="830" y="375.0788" width="160" height="59.8424" as="geometry" />
        </mxCell>
        <mxCell id="dxb3g4jdBgxlE4eDlorj-15" style="shape=tableRow;horizontal=0;startSize=0;swimlaneHead=0;swimlaneBody=0;strokeColor=inherit;top=0;left=0;bottom=0;right=0;collapsible=0;dropTarget=0;fillColor=none;points=[[0,0.5],[1,0.5]];portConstraint=eastwest;fontColor=#FFFFFF;" parent="dxb3g4jdBgxlE4eDlorj-14" vertex="1">
          <mxGeometry width="160" height="30" as="geometry" />
        </mxCell>
        <mxCell id="dxb3g4jdBgxlE4eDlorj-16" value="orgId" style="shape=partialRectangle;html=1;whiteSpace=wrap;connectable=0;strokeColor=#d6b656;overflow=hidden;fillColor=#fff2cc;top=0;left=0;bottom=0;right=0;pointerEvents=1;align=left;spacingLeft=3;" parent="dxb3g4jdBgxlE4eDlorj-15" vertex="1">
          <mxGeometry width="160" height="30" as="geometry">
            <mxRectangle width="160" height="30" as="alternateBounds" />
          </mxGeometry>
        </mxCell>
        <mxCell id="dxb3g4jdBgxlE4eDlorj-17" style="shape=tableRow;horizontal=0;startSize=0;swimlaneHead=0;swimlaneBody=0;strokeColor=inherit;top=0;left=0;bottom=0;right=0;collapsible=0;dropTarget=0;fillColor=none;points=[[0,0.5],[1,0.5]];portConstraint=eastwest;fontColor=#FFFFFF;" parent="dxb3g4jdBgxlE4eDlorj-14" vertex="1">
          <mxGeometry y="30" width="160" height="30" as="geometry" />
        </mxCell>
        <mxCell id="dxb3g4jdBgxlE4eDlorj-18" value="rid" style="shape=partialRectangle;html=1;whiteSpace=wrap;connectable=0;strokeColor=#d6b656;overflow=hidden;fillColor=#fff2cc;top=0;left=0;bottom=0;right=0;pointerEvents=1;align=left;spacingLeft=3;" parent="dxb3g4jdBgxlE4eDlorj-17" vertex="1">
          <mxGeometry width="160" height="30" as="geometry">
            <mxRectangle width="160" height="30" as="alternateBounds" />
          </mxGeometry>
        </mxCell>
        <mxCell id="dxb3g4jdBgxlE4eDlorj-40" value="" style="shape=table;startSize=0;container=1;collapsible=0;childLayout=tableLayout;fillColor=#5B9BD5;strokeColor=#5B9BD5;fontColor=#FFFFFF;spacingRight=3;spacingLeft=3;" parent="1" vertex="1">
          <mxGeometry x="830" y="570.0394" width="160" height="29.9212" as="geometry" />
        </mxCell>
        <mxCell id="dxb3g4jdBgxlE4eDlorj-41" style="shape=tableRow;horizontal=0;startSize=0;swimlaneHead=0;swimlaneBody=0;strokeColor=inherit;top=0;left=0;bottom=0;right=0;collapsible=0;dropTarget=0;fillColor=none;points=[[0,0.5],[1,0.5]];portConstraint=eastwest;fontColor=#FFFFFF;" parent="dxb3g4jdBgxlE4eDlorj-40" vertex="1">
          <mxGeometry width="160" height="30" as="geometry" />
        </mxCell>
        <mxCell id="dxb3g4jdBgxlE4eDlorj-42" value="id" style="shape=partialRectangle;html=1;whiteSpace=wrap;connectable=0;strokeColor=#d6b656;overflow=hidden;fillColor=#fff2cc;top=0;left=0;bottom=0;right=0;pointerEvents=1;align=left;spacingLeft=3;" parent="dxb3g4jdBgxlE4eDlorj-41" vertex="1">
          <mxGeometry width="160" height="30" as="geometry">
            <mxRectangle width="160" height="30" as="alternateBounds" />
          </mxGeometry>
        </mxCell>
        <mxCell id="dxb3g4jdBgxlE4eDlorj-45" value="" style="shape=table;startSize=0;container=1;collapsible=0;childLayout=tableLayout;fillColor=#5B9BD5;strokeColor=#5B9BD5;fontColor=#FFFFFF;spacingRight=3;spacingLeft=3;" parent="1" vertex="1">
          <mxGeometry x="830" y="487.0394" width="160" height="29.9212" as="geometry" />
        </mxCell>
        <mxCell id="dxb3g4jdBgxlE4eDlorj-46" style="shape=tableRow;horizontal=0;startSize=0;swimlaneHead=0;swimlaneBody=0;strokeColor=inherit;top=0;left=0;bottom=0;right=0;collapsible=0;dropTarget=0;fillColor=none;points=[[0,0.5],[1,0.5]];portConstraint=eastwest;fontColor=#FFFFFF;" parent="dxb3g4jdBgxlE4eDlorj-45" vertex="1">
          <mxGeometry width="160" height="30" as="geometry" />
        </mxCell>
        <mxCell id="dxb3g4jdBgxlE4eDlorj-47" value="id" style="shape=partialRectangle;html=1;whiteSpace=wrap;connectable=0;strokeColor=#d6b656;overflow=hidden;fillColor=#fff2cc;top=0;left=0;bottom=0;right=0;pointerEvents=1;align=left;spacingLeft=3;" parent="dxb3g4jdBgxlE4eDlorj-46" vertex="1">
          <mxGeometry width="160" height="30" as="geometry">
            <mxRectangle width="160" height="30" as="alternateBounds" />
          </mxGeometry>
        </mxCell>
        <mxCell id="dxb3g4jdBgxlE4eDlorj-49" value="" style="endArrow=none;html=1;rounded=0;startArrow=block;startFill=1;endFill=0;strokeColor=#7030A0;entryX=1;entryY=0.5;entryDx=0;entryDy=0;" parent="1" source="dxb3g4jdBgxlE4eDlorj-15" target="Smq7ZCun-_wuMZIQ3JeF-13" edge="1">
          <mxGeometry width="50" height="50" relative="1" as="geometry">
            <mxPoint x="850" y="211" as="sourcePoint" />
            <mxPoint x="750" y="211" as="targetPoint" />
          </mxGeometry>
        </mxCell>
        <mxCell id="dxb3g4jdBgxlE4eDlorj-50" value="" style="endArrow=none;html=1;rounded=0;startArrow=block;startFill=1;endFill=0;strokeColor=#7030A0;entryX=1;entryY=0.75;entryDx=0;entryDy=0;exitX=0;exitY=0.5;exitDx=0;exitDy=0;" parent="1" source="dxb3g4jdBgxlE4eDlorj-17" target="Smq7ZCun-_wuMZIQ3JeF-12" edge="1">
          <mxGeometry width="50" height="50" relative="1" as="geometry">
            <mxPoint x="860" y="221" as="sourcePoint" />
            <mxPoint x="760" y="221" as="targetPoint" />
          </mxGeometry>
        </mxCell>
        <mxCell id="dxb3g4jdBgxlE4eDlorj-51" value="" style="endArrow=none;html=1;rounded=0;startArrow=block;startFill=1;endFill=0;strokeColor=#7030A0;entryX=1;entryY=0.5;entryDx=0;entryDy=0;exitX=0;exitY=0.5;exitDx=0;exitDy=0;" parent="1" source="dxb3g4jdBgxlE4eDlorj-46" target="fNSqUUSDBfNgYPUXuudb-111" edge="1">
          <mxGeometry width="50" height="50" relative="1" as="geometry">
            <mxPoint x="870" y="231" as="sourcePoint" />
            <mxPoint x="770" y="231" as="targetPoint" />
          </mxGeometry>
        </mxCell>
        <mxCell id="dxb3g4jdBgxlE4eDlorj-6" value="" style="endArrow=none;html=1;rounded=0;startArrow=block;startFill=1;endFill=0;strokeColor=#7030A0;entryX=1;entryY=0.5;entryDx=0;entryDy=0;exitX=0;exitY=0.5;exitDx=0;exitDy=0;" parent="1" source="dxb3g4jdBgxlE4eDlorj-40" target="fNSqUUSDBfNgYPUXuudb-43" edge="1">
          <mxGeometry width="50" height="50" relative="1" as="geometry">
            <mxPoint x="1030" y="350" as="sourcePoint" />
            <mxPoint x="790" y="350" as="targetPoint" />
          </mxGeometry>
        </mxCell>
        <mxCell id="1SZ2y27ZPKHVgldtnafl-1" value="1" style="text;strokeColor=none;align=center;fillColor=none;html=1;verticalAlign=middle;whiteSpace=wrap;rounded=0;fontColor=#5B9BD5;" parent="1" vertex="1">
          <mxGeometry x="159.35000000000002" y="39.00064999999995" width="18.5039" height="20.078699999999998" as="geometry" />
        </mxCell>
        <mxCell id="T27h_w-Fnf5okz1DlBH_-1" value="" style="endArrow=open;html=1;rounded=0;endFill=0;entryX=1;entryY=0.5;entryDx=0;entryDy=0;exitX=0;exitY=0.5;exitDx=0;exitDy=0;edgeStyle=orthogonalEdgeStyle;" parent="1" source="m5gcwOIUDK1LsqUUPqsP-1" target="Smq7ZCun-_wuMZIQ3JeF-25" edge="1">
          <mxGeometry width="50" height="50" relative="1" as="geometry">
            <mxPoint x="360" y="400" as="sourcePoint" />
            <mxPoint x="167" y="340" as="targetPoint" />
            <Array as="points">
              <mxPoint x="210" y="271" />
              <mxPoint x="210" y="330" />
            </Array>
          </mxGeometry>
        </mxCell>
        <mxCell id="T27h_w-Fnf5okz1DlBH_-2" value="1..*" style="text;strokeColor=none;align=center;fillColor=none;html=1;verticalAlign=middle;whiteSpace=wrap;rounded=0;fontColor=#5B9BD5;" parent="1" vertex="1">
          <mxGeometry x="210" y="249.92064999999994" width="40" height="20.078699999999998" as="geometry" />
        </mxCell>
      </root>
    </mxGraphModel>
  </diagram>
  <diagram id="lQ89xOeJjb9S1Be9Ak0s" name="Connector Form">
    <mxGraphModel dx="1420" dy="-37" grid="1" gridSize="10" guides="1" tooltips="1" connect="1" arrows="1" fold="1" page="1" pageScale="1" pageWidth="1169" pageHeight="827" math="0" shadow="0">
      <root>
        <mxCell id="0" />
        <mxCell id="1" parent="0" />
        <mxCell id="F30nR_Ijgx3-QzuN92bc-1" value="" style="rounded=0;whiteSpace=wrap;html=1;" parent="1" vertex="1">
          <mxGeometry x="176.99999999999997" y="870" width="155.51149999999998" height="29.9212" as="geometry" />
        </mxCell>
        <mxCell id="F30nR_Ijgx3-QzuN92bc-2" value="User Login" style="text;strokeColor=none;align=right;fillColor=none;html=1;verticalAlign=middle;whiteSpace=wrap;rounded=0;" parent="1" vertex="1">
          <mxGeometry x="19" y="870" width="153.543" height="29.9212" as="geometry" />
        </mxCell>
        <mxCell id="F30nR_Ijgx3-QzuN92bc-5" value="Account" style="swimlane;whiteSpace=wrap;html=1;fillColor=#dae8fc;strokeColor=#6c8ebf;align=left;spacingLeft=20;" parent="1" vertex="1">
          <mxGeometry x="10" y="840" width="960" height="300" as="geometry" />
        </mxCell>
        <mxCell id="F30nR_Ijgx3-QzuN92bc-10" value="Organization" style="swimlane;whiteSpace=wrap;html=1;fillColor=#fff2cc;strokeColor=#d6b656;align=left;spacingLeft=20;" parent="F30nR_Ijgx3-QzuN92bc-5" vertex="1">
          <mxGeometry x="9" y="180" width="455" height="110" as="geometry" />
        </mxCell>
        <mxCell id="F30nR_Ijgx3-QzuN92bc-11" value="" style="rounded=0;whiteSpace=wrap;html=1;" parent="F30nR_Ijgx3-QzuN92bc-10" vertex="1">
          <mxGeometry x="4" y="60.000000000000036" width="220" height="29.92" as="geometry" />
        </mxCell>
        <mxCell id="F30nR_Ijgx3-QzuN92bc-12" value="Name" style="text;strokeColor=none;align=left;fillColor=none;html=1;verticalAlign=middle;whiteSpace=wrap;rounded=0;" parent="F30nR_Ijgx3-QzuN92bc-10" vertex="1">
          <mxGeometry x="4" y="30.079999999999927" width="90.551" height="29.9212" as="geometry" />
        </mxCell>
        <mxCell id="F30nR_Ijgx3-QzuN92bc-13" value="" style="shape=image;imageAspect=0;aspect=fixed;verticalLabelPosition=bottom;verticalAlign=top;image=data:image/png,iVBORw0KGgoAAAANSUhEUgAAABAAAAAQCAYAAAAf8/9hAAAAAXNSR0IArs4c6QAAADhlWElmTU0AKgAAAAgAAYdpAAQAAAABAAAAGgAAAAAAAqACAAQAAAABAAAAEKADAAQAAAABAAAAEAAAAAAXnVPIAAABWElEQVQ4EY2TTStEYRTHDYqaFAtvC1YTickGOxoWaoov4AsoH4AVC9vZWCmfAEslJQuKYmPDQhZWKJGFKAuJ33/uOdNzn5nFPfWb8/I/c+7znLmTa0rbJGkZCtAGL3AJB/ANdZazippXYa6uIym84dbhPtZ9wCbCtInH+BP4giIsQRd8wgo8QcpmyE6NhZSSJN24fdMrsd5MYdGK1/jDuIFcx9+2+gS+3+Kq04BhK1yFQhSH2lCoaYAWKPtJXMNPaX+mtIcdGvBshbFQiOJRcl94aokacG7Ns3g1xtZKYdmK2sdd2NBC8gDzkIcS6Od6hF8YgQ3wwbvEN1AzP5YWWYEOU3RfDdDTQ9PbuAa3XtQJZO+gd6EHBkBXEzLdeQcK0Akl0CleoaHpFOMwBYNBRx/xHuhBR1CE2mYVZzEN2YJeqF7Hd5Dly94TDvnwHbiYxetPdgG65tk/t785tkodb2MAAAAASUVORK5CYII=;" parent="F30nR_Ijgx3-QzuN92bc-10" vertex="1">
          <mxGeometry x="205" y="66.96000000000004" width="24" height="24" as="geometry" />
        </mxCell>
        <mxCell id="9M4ZAlzGDgAP5skxw-_Y-3" value="Role" style="text;strokeColor=none;align=left;fillColor=none;html=1;verticalAlign=middle;whiteSpace=wrap;rounded=0;" parent="F30nR_Ijgx3-QzuN92bc-10" vertex="1">
          <mxGeometry x="228.35000000000002" y="30.079999999999927" width="90.551" height="29.9212" as="geometry" />
        </mxCell>
        <mxCell id="F30nR_Ijgx3-QzuN92bc-23" value="" style="rounded=0;whiteSpace=wrap;html=1;" parent="F30nR_Ijgx3-QzuN92bc-5" vertex="1">
          <mxGeometry x="166.99999999999997" y="99" width="155.51149999999998" height="29.9212" as="geometry" />
        </mxCell>
        <mxCell id="F30nR_Ijgx3-QzuN92bc-24" value="DIsplay Name" style="text;strokeColor=none;align=right;fillColor=none;html=1;verticalAlign=middle;whiteSpace=wrap;rounded=0;" parent="F30nR_Ijgx3-QzuN92bc-5" vertex="1">
          <mxGeometry x="9" y="99" width="153.543" height="29.9212" as="geometry" />
        </mxCell>
        <mxCell id="F30nR_Ijgx3-QzuN92bc-27" value="" style="rounded=0;whiteSpace=wrap;html=1;" parent="F30nR_Ijgx3-QzuN92bc-5" vertex="1">
          <mxGeometry x="501.49000000000007" y="30" width="155.51149999999998" height="29.9212" as="geometry" />
        </mxCell>
        <mxCell id="F30nR_Ijgx3-QzuN92bc-28" value="System Identifier" style="text;strokeColor=none;align=right;fillColor=none;html=1;verticalAlign=middle;whiteSpace=wrap;rounded=0;" parent="F30nR_Ijgx3-QzuN92bc-5" vertex="1">
          <mxGeometry x="341.007" y="30.0006" width="153.543" height="29.92" as="geometry" />
        </mxCell>
        <mxCell id="F30nR_Ijgx3-QzuN92bc-29" value="" style="rounded=0;whiteSpace=wrap;html=1;" parent="F30nR_Ijgx3-QzuN92bc-5" vertex="1">
          <mxGeometry x="501.49" y="99.00059999999999" width="29.9212" height="29.92" as="geometry" />
        </mxCell>
        <mxCell id="F30nR_Ijgx3-QzuN92bc-31" value="Team" style="swimlane;whiteSpace=wrap;html=1;fillColor=#fff2cc;strokeColor=#d6b656;align=left;spacingLeft=20;" parent="F30nR_Ijgx3-QzuN92bc-5" vertex="1">
          <mxGeometry x="469" y="180" width="241" height="110" as="geometry" />
        </mxCell>
        <mxCell id="F30nR_Ijgx3-QzuN92bc-32" value="" style="rounded=0;whiteSpace=wrap;html=1;" parent="F30nR_Ijgx3-QzuN92bc-31" vertex="1">
          <mxGeometry x="11.000000000000028" y="59.999999999999886" width="220.07829999999998" height="29.9212" as="geometry" />
        </mxCell>
        <mxCell id="F30nR_Ijgx3-QzuN92bc-33" value="Name" style="text;strokeColor=none;align=left;fillColor=none;html=1;verticalAlign=middle;whiteSpace=wrap;rounded=0;" parent="F30nR_Ijgx3-QzuN92bc-31" vertex="1">
          <mxGeometry x="11" y="30.079999999999927" width="90.551" height="29.9212" as="geometry" />
        </mxCell>
        <mxCell id="F30nR_Ijgx3-QzuN92bc-38" value="" style="shape=image;imageAspect=0;aspect=fixed;verticalLabelPosition=bottom;verticalAlign=top;image=data:image/png,iVBORw0KGgoAAAANSUhEUgAAABAAAAAQCAYAAAAf8/9hAAAAAXNSR0IArs4c6QAAADhlWElmTU0AKgAAAAgAAYdpAAQAAAABAAAAGgAAAAAAAqACAAQAAAABAAAAEKADAAQAAAABAAAAEAAAAAAXnVPIAAABWElEQVQ4EY2TTStEYRTHDYqaFAtvC1YTickGOxoWaoov4AsoH4AVC9vZWCmfAEslJQuKYmPDQhZWKJGFKAuJ33/uOdNzn5nFPfWb8/I/c+7znLmTa0rbJGkZCtAGL3AJB/ANdZazippXYa6uIym84dbhPtZ9wCbCtInH+BP4giIsQRd8wgo8QcpmyE6NhZSSJN24fdMrsd5MYdGK1/jDuIFcx9+2+gS+3+Kq04BhK1yFQhSH2lCoaYAWKPtJXMNPaX+mtIcdGvBshbFQiOJRcl94aokacG7Ns3g1xtZKYdmK2sdd2NBC8gDzkIcS6Od6hF8YgQ3wwbvEN1AzP5YWWYEOU3RfDdDTQ9PbuAa3XtQJZO+gd6EHBkBXEzLdeQcK0Akl0CleoaHpFOMwBYNBRx/xHuhBR1CE2mYVZzEN2YJeqF7Hd5Dly94TDvnwHbiYxetPdgG65tk/t785tkodb2MAAAAASUVORK5CYII=;" parent="F30nR_Ijgx3-QzuN92bc-31" vertex="1">
          <mxGeometry x="211.0783" y="66.96059999999989" width="24" height="24" as="geometry" />
        </mxCell>
        <mxCell id="F30nR_Ijgx3-QzuN92bc-3" value="" style="rounded=0;whiteSpace=wrap;html=1;" parent="F30nR_Ijgx3-QzuN92bc-5" vertex="1">
          <mxGeometry x="167" y="132.99940000000004" width="155.51149999999998" height="29.9212" as="geometry" />
        </mxCell>
        <mxCell id="qk6_oT8K-8OdENrXUOkM-51" value="" style="rounded=0;whiteSpace=wrap;html=1;" parent="F30nR_Ijgx3-QzuN92bc-5" vertex="1">
          <mxGeometry x="166.99999999999997" y="65" width="155.51149999999998" height="29.9212" as="geometry" />
        </mxCell>
        <mxCell id="qk6_oT8K-8OdENrXUOkM-52" value="Password" style="text;strokeColor=none;align=right;fillColor=none;html=1;verticalAlign=middle;whiteSpace=wrap;rounded=0;" parent="F30nR_Ijgx3-QzuN92bc-5" vertex="1">
          <mxGeometry x="9" y="65" width="153.543" height="29.9212" as="geometry" />
        </mxCell>
        <mxCell id="9M4ZAlzGDgAP5skxw-_Y-1" value="" style="rounded=0;whiteSpace=wrap;html=1;" parent="F30nR_Ijgx3-QzuN92bc-5" vertex="1">
          <mxGeometry x="237.35000000000002" y="240.00000000000003" width="220" height="29.92" as="geometry" />
        </mxCell>
        <mxCell id="9M4ZAlzGDgAP5skxw-_Y-2" value="" style="shape=image;imageAspect=0;aspect=fixed;verticalLabelPosition=bottom;verticalAlign=top;image=data:image/png,iVBORw0KGgoAAAANSUhEUgAAABAAAAAQCAYAAAAf8/9hAAAAAXNSR0IArs4c6QAAADhlWElmTU0AKgAAAAgAAYdpAAQAAAABAAAAGgAAAAAAAqACAAQAAAABAAAAEKADAAQAAAABAAAAEAAAAAAXnVPIAAABWElEQVQ4EY2TTStEYRTHDYqaFAtvC1YTickGOxoWaoov4AsoH4AVC9vZWCmfAEslJQuKYmPDQhZWKJGFKAuJ33/uOdNzn5nFPfWb8/I/c+7znLmTa0rbJGkZCtAGL3AJB/ANdZazippXYa6uIym84dbhPtZ9wCbCtInH+BP4giIsQRd8wgo8QcpmyE6NhZSSJN24fdMrsd5MYdGK1/jDuIFcx9+2+gS+3+Kq04BhK1yFQhSH2lCoaYAWKPtJXMNPaX+mtIcdGvBshbFQiOJRcl94aokacG7Ns3g1xtZKYdmK2sdd2NBC8gDzkIcS6Od6hF8YgQ3wwbvEN1AzP5YWWYEOU3RfDdDTQ9PbuAa3XtQJZO+gd6EHBkBXEzLdeQcK0Akl0CleoaHpFOMwBYNBRx/xHuhBR1CE2mYVZzEN2YJeqF7Hd5Dly94TDvnwHbiYxetPdgG65tk/t785tkodb2MAAAAASUVORK5CYII=;" parent="F30nR_Ijgx3-QzuN92bc-5" vertex="1">
          <mxGeometry x="438.35" y="246.96000000000004" width="24" height="24" as="geometry" />
        </mxCell>
        <mxCell id="F30nR_Ijgx3-QzuN92bc-6" value="Role" style="swimlane;whiteSpace=wrap;html=1;fillColor=#fff2cc;strokeColor=#d6b656;align=left;spacingLeft=20;" parent="F30nR_Ijgx3-QzuN92bc-5" vertex="1">
          <mxGeometry x="717" y="180" width="229.1334" height="110" as="geometry" />
        </mxCell>
        <mxCell id="F30nR_Ijgx3-QzuN92bc-7" value="" style="rounded=0;whiteSpace=wrap;html=1;" parent="F30nR_Ijgx3-QzuN92bc-6" vertex="1">
          <mxGeometry x="4" y="60.000000000000036" width="220.07829999999998" height="29.92" as="geometry" />
        </mxCell>
        <mxCell id="F30nR_Ijgx3-QzuN92bc-8" value="Name" style="text;strokeColor=none;align=left;fillColor=none;html=1;verticalAlign=middle;whiteSpace=wrap;rounded=0;" parent="F30nR_Ijgx3-QzuN92bc-6" vertex="1">
          <mxGeometry x="4" y="30.079999999999927" width="90.551" height="29.9212" as="geometry" />
        </mxCell>
        <mxCell id="F30nR_Ijgx3-QzuN92bc-9" value="" style="shape=image;imageAspect=0;aspect=fixed;verticalLabelPosition=bottom;verticalAlign=top;image=data:image/png,iVBORw0KGgoAAAANSUhEUgAAABAAAAAQCAYAAAAf8/9hAAAAAXNSR0IArs4c6QAAADhlWElmTU0AKgAAAAgAAYdpAAQAAAABAAAAGgAAAAAAAqACAAQAAAABAAAAEKADAAQAAAABAAAAEAAAAAAXnVPIAAABWElEQVQ4EY2TTStEYRTHDYqaFAtvC1YTickGOxoWaoov4AsoH4AVC9vZWCmfAEslJQuKYmPDQhZWKJGFKAuJ33/uOdNzn5nFPfWb8/I/c+7znLmTa0rbJGkZCtAGL3AJB/ANdZazippXYa6uIym84dbhPtZ9wCbCtInH+BP4giIsQRd8wgo8QcpmyE6NhZSSJN24fdMrsd5MYdGK1/jDuIFcx9+2+gS+3+Kq04BhK1yFQhSH2lCoaYAWKPtJXMNPaX+mtIcdGvBshbFQiOJRcl94aokacG7Ns3g1xtZKYdmK2sdd2NBC8gDzkIcS6Od6hF8YgQ3wwbvEN1AzP5YWWYEOU3RfDdDTQ9PbuAa3XtQJZO+gd6EHBkBXEzLdeQcK0Akl0CleoaHpFOMwBYNBRx/xHuhBR1CE2mYVZzEN2YJeqF7Hd5Dly94TDvnwHbiYxetPdgG65tk/t785tkodb2MAAAAASUVORK5CYII=;" parent="F30nR_Ijgx3-QzuN92bc-6" vertex="1">
          <mxGeometry x="205" y="66.96000000000004" width="24" height="24" as="geometry" />
        </mxCell>
        <mxCell id="azD-pjLIpc420K0vghZs-1" value="" style="rounded=0;whiteSpace=wrap;html=1;" vertex="1" parent="F30nR_Ijgx3-QzuN92bc-5">
          <mxGeometry x="501.49" y="65" width="155.51149999999998" height="29.9212" as="geometry" />
        </mxCell>
        <mxCell id="azD-pjLIpc420K0vghZs-2" value="Organization" style="text;strokeColor=none;align=right;fillColor=none;html=1;verticalAlign=middle;whiteSpace=wrap;rounded=0;" vertex="1" parent="F30nR_Ijgx3-QzuN92bc-5">
          <mxGeometry x="341.007" y="65.00059999999999" width="153.543" height="29.92" as="geometry" />
        </mxCell>
        <mxCell id="azD-pjLIpc420K0vghZs-3" value="" style="shape=image;imageAspect=0;aspect=fixed;verticalLabelPosition=bottom;verticalAlign=top;image=data:image/png,iVBORw0KGgoAAAANSUhEUgAAABAAAAAQCAYAAAAf8/9hAAAAAXNSR0IArs4c6QAAADhlWElmTU0AKgAAAAgAAYdpAAQAAAABAAAAGgAAAAAAAqACAAQAAAABAAAAEKADAAQAAAABAAAAEAAAAAAXnVPIAAABWElEQVQ4EY2TTStEYRTHDYqaFAtvC1YTickGOxoWaoov4AsoH4AVC9vZWCmfAEslJQuKYmPDQhZWKJGFKAuJ33/uOdNzn5nFPfWb8/I/c+7znLmTa0rbJGkZCtAGL3AJB/ANdZazippXYa6uIym84dbhPtZ9wCbCtInH+BP4giIsQRd8wgo8QcpmyE6NhZSSJN24fdMrsd5MYdGK1/jDuIFcx9+2+gS+3+Kq04BhK1yFQhSH2lCoaYAWKPtJXMNPaX+mtIcdGvBshbFQiOJRcl94aokacG7Ns3g1xtZKYdmK2sdd2NBC8gDzkIcS6Od6hF8YgQ3wwbvEN1AzP5YWWYEOU3RfDdDTQ9PbuAa3XtQJZO+gd6EHBkBXEzLdeQcK0Akl0CleoaHpFOMwBYNBRx/xHuhBR1CE2mYVZzEN2YJeqF7Hd5Dly94TDvnwHbiYxetPdgG65tk/t785tkodb2MAAAAASUVORK5CYII=;" vertex="1" parent="F30nR_Ijgx3-QzuN92bc-5">
          <mxGeometry x="634.9983" y="71.96059999999989" width="24" height="24" as="geometry" />
        </mxCell>
        <mxCell id="F30nR_Ijgx3-QzuN92bc-30" value="System Account" style="text;strokeColor=none;align=right;fillColor=none;html=1;verticalAlign=middle;whiteSpace=wrap;rounded=0;" parent="1" vertex="1">
          <mxGeometry x="351.007" y="939.0006" width="153.543" height="29.92" as="geometry" />
        </mxCell>
        <mxCell id="F30nR_Ijgx3-QzuN92bc-4" value="e-Mail" style="text;strokeColor=none;align=right;fillColor=none;html=1;verticalAlign=middle;whiteSpace=wrap;rounded=0;" parent="1" vertex="1">
          <mxGeometry x="19" y="973" width="153.543" height="29.92" as="geometry" />
        </mxCell>
      </root>
    </mxGraphModel>
  </diagram>
  <diagram id="prtHgNgQTEPvFCAcTncT" name="Overall Flow">
    <mxGraphModel dx="1420" dy="865" grid="1" gridSize="10" guides="1" tooltips="1" connect="1" arrows="1" fold="1" page="1" pageScale="1" pageWidth="827" pageHeight="1169" math="0" shadow="0">
      <root>
        <mxCell id="0" />
        <mxCell id="1" parent="0" />
        <mxCell id="dNxyNK7c78bLwvsdeMH5-19" value="Pool" style="swimlane;html=1;childLayout=stackLayout;resizeParent=1;resizeParentMax=0;horizontal=1;startSize=20;horizontalStack=1;" parent="1" vertex="1">
          <mxGeometry x="120" y="120" width="1181.1" height="440" as="geometry" />
        </mxCell>
        <mxCell id="dNxyNK7c78bLwvsdeMH5-20" value="User" style="swimlane;html=1;startSize=20;horizontal=1;" parent="dNxyNK7c78bLwvsdeMH5-19" vertex="1">
          <mxGeometry y="20" width="393.7" height="420" as="geometry" />
        </mxCell>
        <mxCell id="dNxyNK7c78bLwvsdeMH5-25" value="" style="edgeStyle=orthogonalEdgeStyle;rounded=0;orthogonalLoop=1;jettySize=auto;html=1;" parent="dNxyNK7c78bLwvsdeMH5-20" source="dNxyNK7c78bLwvsdeMH5-23" target="dNxyNK7c78bLwvsdeMH5-24" edge="1">
          <mxGeometry relative="1" as="geometry" />
        </mxCell>
        <mxCell id="dNxyNK7c78bLwvsdeMH5-23" value="Start" style="ellipse;whiteSpace=wrap;html=1;fillColor=#d5e8d4;strokeColor=#82b366;" parent="dNxyNK7c78bLwvsdeMH5-20" vertex="1">
          <mxGeometry x="60" y="40" width="40" height="40" as="geometry" />
        </mxCell>
        <mxCell id="dNxyNK7c78bLwvsdeMH5-24" value="Download the connector installation package" style="rounded=0;whiteSpace=wrap;html=1;fontFamily=Helvetica;fontSize=12;fontColor=#000000;align=center;" parent="dNxyNK7c78bLwvsdeMH5-20" vertex="1">
          <mxGeometry x="10" y="101" width="140" height="60" as="geometry" />
        </mxCell>
        <mxCell id="fcFckjQbMsHZEOsR86WL-6" value="Create a target system user account for connector operations" style="rounded=0;whiteSpace=wrap;html=1;fontFamily=Helvetica;fontSize=12;fontColor=#000000;align=center;" parent="dNxyNK7c78bLwvsdeMH5-20" vertex="1">
          <mxGeometry x="10" y="200" width="140" height="60" as="geometry" />
        </mxCell>
        <mxCell id="fcFckjQbMsHZEOsR86WL-8" value="Log in to Oracle Identity Governance Self Service" style="rounded=0;whiteSpace=wrap;html=1;fontFamily=Helvetica;fontSize=12;fontColor=#000000;align=center;" parent="dNxyNK7c78bLwvsdeMH5-20" vertex="1">
          <mxGeometry x="10" y="313" width="140" height="60" as="geometry" />
        </mxCell>
        <mxCell id="fcFckjQbMsHZEOsR86WL-9" value="Onboard application" style="endArrow=classic;html=1;rounded=0;exitX=0.5;exitY=1;exitDx=0;exitDy=0;entryX=0.5;entryY=0;entryDx=0;entryDy=0;" parent="dNxyNK7c78bLwvsdeMH5-20" source="fcFckjQbMsHZEOsR86WL-6" target="fcFckjQbMsHZEOsR86WL-8" edge="1">
          <mxGeometry width="50" height="50" relative="1" as="geometry">
            <mxPoint x="350" y="290" as="sourcePoint" />
            <mxPoint x="400" y="240" as="targetPoint" />
          </mxGeometry>
        </mxCell>
        <mxCell id="dNxyNK7c78bLwvsdeMH5-21" value="AOB" style="swimlane;html=1;startSize=20;horizontal=1;" parent="dNxyNK7c78bLwvsdeMH5-19" vertex="1">
          <mxGeometry x="393.7" y="20" width="393.7" height="420" as="geometry" />
        </mxCell>
        <mxCell id="fcFckjQbMsHZEOsR86WL-3" value="Copy to the &lt;font face=&quot;Courier New&quot;&gt;&lt;i&gt;OIG_HOME&lt;/i&gt;/server/ConnectorDefaultDirectory&lt;br&gt;&lt;/font&gt;directory" style="rounded=0;whiteSpace=wrap;html=1;fontFamily=Helvetica;fontSize=12;fontColor=#000000;align=center;" parent="dNxyNK7c78bLwvsdeMH5-21" vertex="1">
          <mxGeometry x="22" y="101" width="348" height="60" as="geometry" />
        </mxCell>
        <mxCell id="fcFckjQbMsHZEOsR86WL-10" value="Update the Basic Configuration parameters" style="rounded=0;whiteSpace=wrap;html=1;fontFamily=Helvetica;fontSize=12;fontColor=#000000;align=center;" parent="dNxyNK7c78bLwvsdeMH5-21" vertex="1">
          <mxGeometry x="21.999999999999943" y="313" width="140" height="60" as="geometry" />
        </mxCell>
        <mxCell id="fcFckjQbMsHZEOsR86WL-11" value="Update the Advanced Configuration parameters, if required" style="rounded=0;whiteSpace=wrap;html=1;fontFamily=Helvetica;fontSize=12;fontColor=#000000;align=center;" parent="dNxyNK7c78bLwvsdeMH5-21" vertex="1">
          <mxGeometry x="236.29999999999995" y="313" width="140" height="60" as="geometry" />
        </mxCell>
        <mxCell id="fcFckjQbMsHZEOsR86WL-13" value="" style="endArrow=classic;html=1;rounded=0;exitX=1;exitY=0.5;exitDx=0;exitDy=0;entryX=0;entryY=0.5;entryDx=0;entryDy=0;" parent="dNxyNK7c78bLwvsdeMH5-21" source="fcFckjQbMsHZEOsR86WL-10" target="fcFckjQbMsHZEOsR86WL-11" edge="1">
          <mxGeometry width="50" height="50" relative="1" as="geometry">
            <mxPoint x="-43.700000000000045" y="290" as="sourcePoint" />
            <mxPoint x="6.2999999999999545" y="240" as="targetPoint" />
          </mxGeometry>
        </mxCell>
        <mxCell id="dNxyNK7c78bLwvsdeMH5-22" value="CIW" style="swimlane;html=1;startSize=20;horizontal=1;" parent="dNxyNK7c78bLwvsdeMH5-19" vertex="1">
          <mxGeometry x="787.4" y="20" width="393.7" height="420" as="geometry" />
        </mxCell>
        <mxCell id="fcFckjQbMsHZEOsR86WL-4" value="" style="endArrow=classic;html=1;rounded=0;exitX=1;exitY=0.5;exitDx=0;exitDy=0;entryX=0;entryY=0.5;entryDx=0;entryDy=0;" parent="dNxyNK7c78bLwvsdeMH5-19" source="dNxyNK7c78bLwvsdeMH5-24" target="fcFckjQbMsHZEOsR86WL-3" edge="1">
          <mxGeometry width="50" height="50" relative="1" as="geometry">
            <mxPoint x="200" y="250" as="sourcePoint" />
            <mxPoint x="250" y="200" as="targetPoint" />
          </mxGeometry>
        </mxCell>
        <mxCell id="fcFckjQbMsHZEOsR86WL-5" value="&amp;nbsp; Unzip the connector installation package&amp;nbsp;&amp;nbsp;" style="edgeLabel;html=1;align=center;verticalAlign=middle;resizable=0;points=[];" parent="fcFckjQbMsHZEOsR86WL-4" vertex="1" connectable="0">
          <mxGeometry x="-0.0517" relative="1" as="geometry">
            <mxPoint as="offset" />
          </mxGeometry>
        </mxCell>
        <mxCell id="fcFckjQbMsHZEOsR86WL-7" value="" style="endArrow=classic;html=1;rounded=0;exitX=0.5;exitY=1;exitDx=0;exitDy=0;entryX=0.5;entryY=0;entryDx=0;entryDy=0;edgeStyle=orthogonalEdgeStyle;" parent="dNxyNK7c78bLwvsdeMH5-19" source="fcFckjQbMsHZEOsR86WL-3" target="fcFckjQbMsHZEOsR86WL-6" edge="1">
          <mxGeometry width="50" height="50" relative="1" as="geometry">
            <mxPoint x="350" y="250" as="sourcePoint" />
            <mxPoint x="400" y="200" as="targetPoint" />
          </mxGeometry>
        </mxCell>
        <mxCell id="fcFckjQbMsHZEOsR86WL-12" value="" style="endArrow=classic;html=1;rounded=0;exitX=1;exitY=0.5;exitDx=0;exitDy=0;entryX=0;entryY=0.5;entryDx=0;entryDy=0;" parent="dNxyNK7c78bLwvsdeMH5-19" source="fcFckjQbMsHZEOsR86WL-8" target="fcFckjQbMsHZEOsR86WL-10" edge="1">
          <mxGeometry width="50" height="50" relative="1" as="geometry">
            <mxPoint x="350" y="310" as="sourcePoint" />
            <mxPoint x="400" y="260" as="targetPoint" />
          </mxGeometry>
        </mxCell>
      </root>
    </mxGraphModel>
  </diagram>
</mxfile>
